<?xml version="1.0" encoding="utf-8"?>
<COLLADA xmlns="http://www.collada.org/2005/11/COLLADASchema" version="1.4.1" xmlns:xsi="http://www.w3.org/2001/XMLSchema-instance">
  <asset>
    <contributor>
      <author>Blender User</author>
      <authoring_tool>Blender 4.3.2 commit date:2024-12-16, commit time:21:10, hash:32f5fdce0a0a</authoring_tool>
    </contributor>
    <created>2025-04-11T18:18:37</created>
    <modified>2025-04-11T18:18:37</modified>
    <unit name="meter" meter="1"/>
    <up_axis>Z_UP</up_axis>
  </asset>
  <library_effects>
    <effect id="default_001-effect">
      <profile_COMMON>
        <newparam sid="Image_Link_png-surface">
          <surface type="2D">
            <init_from>Image_Link_png</init_from>
          </surface>
        </newparam>
        <newparam sid="Image_Link_png-sampler">
          <sampler2D>
            <source>Image_Link_png-surface</source>
          </sampler2D>
        </newparam>
        <technique sid="common">
          <lambert>
            <emission>
              <color sid="emission">0 0 0 1</color>
            </emission>
            <diffuse>
              <texture texture="Image_Link_png-sampler" texcoord="UVMap"/>
            </diffuse>
            <index_of_refraction>
              <float sid="ior">1.45</float>
            </index_of_refraction>
          </lambert>
        </technique>
      </profile_COMMON>
    </effect>
  </library_effects>
  <library_images>
    <image id="Image_Link_png" name="Image_Link_png">
      <init_from>Image_Link.png</init_from>
    </image>
  </library_images>
  <library_materials>
    <material id="default_001-material" name="default.001">
      <instance_effect url="#default_001-effect"/>
    </material>
  </library_materials>
  <library_geometries>
    <geometry id="F-mesh" name="F">
      <mesh>
        <source id="F-mesh-positions">
          <float_array id="F-mesh-positions-array" count="2013">-8.000002 15.5 34 -8.000002 15.5 34 -8.000002 15.5 34 0.005356967 23.49969 34 0.005356967 23.49969 34 7.999998 15.5 34 7.999998 15.5 34 7.999998 15.5 34 -0.005361974 7.500315 34 -0.005361974 7.500315 34 7.999998 15.5 37.49663 7.999998 15.5 37.49663 7.999998 15.5 37.49663 5.650879 9.83718 38.10512 5.650879 9.83718 38.10512 -3e-6 7.5 38.70154 -3e-6 7.5 38.70154 -3e-6 7.5 38.70154 -5.66037 9.846661 38.1031 -5.66037 9.846661 38.1031 -8.000003 15.5 37.49663 -8.000003 15.5 37.49663 -8.000003 15.5 37.49663 -5.656761 21.15695 38.10387 -5.656761 21.15695 38.10387 -2.86e-4 23.5 38.70154 -2.86e-4 23.5 38.70154 -2.86e-4 23.5 38.70154 5.662111 21.15159 38.10272 5.662111 21.15159 38.10272 -3.54e-4 25.08187 40 -3.54e-4 25.08187 40 -3.54e-4 25.08187 40 9.903259 15.52311 38.75468 9.903259 15.52311 38.75468 7.097316 8.817788 39.36531 7.097316 8.817788 39.36531 -3e-6 5.918131 40 -3e-6 5.918131 40 -3e-6 5.918131 40 -7.069294 8.789742 39.37036 -7.069294 8.789742 39.37036 -9.903363 15.52405 38.75466 -9.903363 15.52405 38.75466 -40 27 -2e-6 -40 27 -2e-6 -40 27 -2e-6 -40 27 -2e-6 -34.64101 27 20 -34.64101 27 20 -20 27 34.64101 -20 27 34.64101 -2e-6 27 40 -2e-6 27 40 20 27 34.64101 20 27 34.64101 34.64101 27 20 34.64101 27 20 40 27 2e-6 40 27 2e-6 40 27 2e-6 40 27 2e-6 40 0 2e-6 40 0 2e-6 40 0 2e-6 34.6406 0 20.00081 34.6406 0 20.00081 20.03063 0 34.62312 20.03063 0 34.62312 -0.006740987 0 39.99965 -0.006740987 0 39.99965 -10.02166 0 38.72388 -10.02166 0 38.72388 -19.99425 0 34.64411 -19.99425 0 34.64411 -34.62065 0 20.03521 -34.62065 0 20.03521 -40 0 -2e-6 -40 0 -2e-6 -40 0 -2e-6 -38.5 28.5 -2e-6 -38.5 28.5 -2e-6 -38.5 28.5 -2e-6 -33.34231 28.5 19.24953 -33.34231 28.5 19.24953 -21.55545 28.5 31.89998 -21.55545 28.5 31.89998 -19.25484 28.5 33.33898 -19.25484 28.5 33.33898 0.003137946 28.5 38.49967 0.003137946 28.5 38.49967 8.509121 28.5 37.54781 8.509121 28.5 37.54781 19.23941 28.5 33.34785 19.23941 28.5 33.34785 33.32259 28.5 19.28355 33.32259 28.5 19.28355 38.5 28.5 2e-6 38.5 28.5 2e-6 38.5 28.5 2e-6 8.507038 28.5 30.32946 8.507038 28.5 30.32946 22.27468 28.5 22.27248 22.27468 28.5 22.27248 31.5 28.5 10e-7 31.5 28.5 10e-7 31.5 28.5 10e-7 22.25267 28.5 -22.29459 22.25267 28.5 -22.29459 8.506623 28.5 -30.32959 8.506623 28.5 -30.32959 8.509032 28.5 -37.54781 8.509032 28.5 -37.54781 19.25484 28.5 -33.33898 19.25484 28.5 -33.33898 33.34231 28.5 -19.24953 33.34231 28.5 -19.24953 -0.003138959 28.5 -38.49967 -0.003138959 28.5 -38.49967 -0.01084899 28.5 -31.49998 -0.01084899 28.5 -31.49998 -21.54242 28.5 -22.98166 -21.54242 28.5 -22.98166 -21.55491 28.5 -31.90033 -21.55491 28.5 -31.90033 -19.23941 28.5 -33.34785 -19.23941 28.5 -33.34785 -33.32259 28.5 -19.28355 -33.32259 28.5 -19.28355 -22.27468 28.5 -22.27248 -22.27468 28.5 -22.27248 -31.5 28.5 -10e-7 -31.5 28.5 -10e-7 -31.5 28.5 -10e-7 -22.25268 28.5 22.29459 -22.25268 28.5 22.29459 -21.54242 28.5 22.98175 -21.54242 28.5 22.98175 0.01084798 28.5 31.49998 0.01084798 28.5 31.49998 -34.64101 27 -20 -34.64101 27 -20 -20 27 -34.64101 -20 27 -34.64101 10e-7 27 -40 10e-7 27 -40 20 27 -34.64101 20 27 -34.64101 34.64101 27 -20 34.64101 27 -20 -34.64061 0 -20.00081 -34.64061 0 -20.00081 -20.00806 0 -34.63617 -20.00806 0 -34.63617 -10.02157 0 -38.72385 -10.02157 0 -38.72385 0.006737947 0 -39.99965 0.006737947 0 -39.99965 20.03103 0 -34.62286 20.03103 0 -34.62286 34.62065 0 -20.03521 34.62065 0 -20.03521 20.04281 0 -33.45547 20.04281 0 -33.45547 33.77477 0 -19.50049 33.77477 0 -19.50049 39 0 2e-6 39 0 2e-6 39 0 2e-6 33.75496 0 19.53463 33.75496 0 19.53463 20.04308 0 33.45527 20.04308 0 33.45527 19.49154 0 33.77964 19.49154 0 33.77964 0.004312992 0 38.99966 0.004312992 0 38.99966 -10.02277 0 37.68967 -10.02277 0 37.68967 -19.50647 0 33.77106 -19.50647 0 33.77106 -33.77478 0 19.50049 -33.77478 0 19.50049 -39 0 -2e-6 -39 0 -2e-6 -39 0 -2e-6 -33.75497 0 -19.53463 -33.75497 0 -19.53463 -19.49154 0 -33.77964 -19.49154 0 -33.77964 -10.02282 0 -37.6897 -10.02282 0 -37.6897 -0.004315972 0 -38.99966 -0.004315972 0 -38.99966 19.50646 0 -33.77106 19.50646 0 -33.77106 38 1 2e-6 38 1 2e-6 38 1 2e-6 38 1 2e-6 -38 1 -2e-6 -38 1 -2e-6 -38 1 -2e-6 -38 1 -2e-6 -32.90896 1 -19 -32.90896 1 -19 -19 1 -32.90896 -19 1 -32.90896 0 1 -38 0 1 -38 19 1 -32.90896 19 1 -32.90896 32.90896 1 -19 32.90896 1 -19 -38 6.000002 -2e-6 -38 6.000002 -2e-6 -38 6.000002 -2e-6 -32.90967 6.000002 -18.9989 -32.90967 6.000002 -18.9989 -19.00306 6 -32.90699 -19.00306 6 -32.90699 -8.003732 6 -37.14751 -8.003732 6 -37.14751 0.001984953 6 -37.99967 0.001984953 6 -37.99967 18.98716 6 -32.91613 18.98716 6 -32.91613 22.03652 5.999998 -30.95788 22.03652 5.999998 -30.95788 32.89002 5.999998 -19.03278 32.89002 5.999998 -19.03278 38 5.999998 2e-6 38 5.999998 2e-6 38 5.999998 2e-6 22.03 5.999998 0.001081943 22.03565 5.999998 30.95849 22.03565 5.999998 30.95849 32.90967 5.999998 18.9989 32.90967 5.999998 18.9989 19.00306 6 32.90699 19.00306 6 32.90699 -8.000001 6 -11.95092 -8.000002 6 11.95359 -8.003808 6 37.1475 -8.003808 6 37.1475 -0.001987993 6 37.99967 -0.001987993 6 37.99967 -18.98716 6 32.91613 -18.98716 6 32.91613 -32.89002 6.000002 19.03278 -32.89002 6.000002 19.03278 -32.90897 1 19 -32.90897 1 19 -19 1 32.90896 -19 1 32.90896 -3e-6 1 38 -3e-6 1 38 19 1 32.90896 19 1 32.90896 32.90896 1 19 32.90896 1 19 -31.5 33.5 -10e-7 -31.5 33.5 -10e-7 -31.5 33.5 -10e-7 -31.5 33.5 -10e-7 -22.27387 33.5 22.27386 -22.27387 33.5 22.27386 -10e-7 33.5 31.5 -10e-7 33.5 31.5 22.27386 33.5 22.27387 22.27386 33.5 22.27387 31.5 33.5 10e-7 31.5 33.5 10e-7 31.5 33.5 10e-7 31.5 33.5 10e-7 -30 35 -10e-7 -30 35 -10e-7 -30 35 -10e-7 -21.2115 35 21.21456 -21.2115 35 21.21456 3.5e-5 35 29.99962 3.5e-5 35 29.99962 21.18897 35 21.23716 21.18897 35 21.23716 30 35 10e-7 30 35 10e-7 30 35 10e-7 -9.3e-5 35 28.49975 -9.3e-5 35 28.49975 3.499999 35 25 3.499999 35 25 3.499999 35 25 2.458466 35 22.50876 2.458466 35 22.50876 9.1e-5 35 21.50025 9.1e-5 35 21.50025 8.6e-5 35 17.74971 8.6e-5 35 17.74971 12.54967 35 12.55213 12.54967 35 12.55213 17.75 35 10e-7 17.75 35 10e-7 17.75 35 10e-7 -8.6e-5 35 -17.74971 -8.6e-5 35 -17.74971 -3.5e-5 35 -29.99962 -3.5e-5 35 -29.99962 21.2115 35 -21.21456 21.2115 35 -21.21456 -21.18897 35 -21.23716 -21.18897 35 -21.23716 -12.54967 35 -12.55213 -12.54967 35 -12.55213 -17.75 35 -10e-7 -17.75 35 -10e-7 -17.75 35 -10e-7 -3.500001 35 25 -3.500001 35 25 -3.500001 35 25 -2.458468 35 27.49125 -2.458468 35 27.49125 -15.17767 35 17.67767 -15.17767 35 17.67767 -15.17767 35 17.67767 -17.68751 35 15.1777 -17.68751 35 15.1777 -20.17767 35 17.67767 -20.17767 35 17.67767 -20.17767 35 17.67767 -17.66783 35 20.17764 -17.66783 35 20.17764 -15.17767 35 -17.67767 -15.17767 35 -17.67767 -15.17767 35 -17.67767 -17.68751 35 -20.17764 -17.68751 35 -20.17764 -20.17767 35 -17.67767 -20.17767 35 -17.67767 -20.17767 35 -17.67767 -17.66783 35 -15.1777 -17.66783 35 -15.1777 20.17767 35 17.67767 20.17767 35 17.67767 20.17767 35 17.67767 17.66783 35 15.1777 17.66783 35 15.1777 15.17767 35 17.67767 15.17767 35 17.67767 15.17767 35 17.67767 17.68751 35 20.17764 17.68751 35 20.17764 20.17767 35 -17.67767 20.17767 35 -17.67767 20.17767 35 -17.67767 17.66783 35 -20.17764 17.66783 35 -20.17764 15.17767 35 -17.67767 15.17767 35 -17.67767 15.17767 35 -17.67767 17.68751 35 -15.1777 17.68751 35 -15.1777 -22.27387 33.5 -22.27387 -22.27387 33.5 -22.27387 10e-7 33.5 -31.5 10e-7 33.5 -31.5 22.27387 33.5 -22.27386 22.27387 33.5 -22.27386 -3.000001 34.5 25 -3.000001 34.5 25 -3.000001 34.5 25 -3.000001 34.5 25 2.999999 34.5 25 2.999999 34.5 25 2.999999 34.5 25 2.999999 34.5 25 -10e-7 34.5 22 -10e-7 34.5 22 2.999999 28.5 25 2.999999 28.5 25 2.999999 28.5 25 0.01180195 28.5 22.00004 0.01180195 28.5 22.00004 -3.000001 28.5 25 -3.000001 28.5 25 -3.000001 28.5 25 -0.01180499 28.5 27.99996 -0.01180499 28.5 27.99996 -10e-7 34.5 28 -10e-7 34.5 28 -15.75 33 -10e-7 -15.75 33 -10e-7 -15.75 33 -10e-7 -15.75 33 -10e-7 15.75 33 10e-7 15.75 33 10e-7 15.75 33 10e-7 15.75 33 10e-7 10e-7 33 -15.75 10e-7 33 -15.75 15.75 28.8 10e-7 15.75 28.8 10e-7 15.75 28.8 10e-7 11.13652 28.8 -11.13619 11.13652 28.8 -11.13619 -0.02130299 28.8 -15.74997 -0.02130299 28.8 -15.74997 -15.75 28.8 -10e-7 -15.75 28.8 -10e-7 -15.75 28.8 -10e-7 0.02130198 28.8 15.74997 0.02130198 28.8 15.74997 -11.13652 28.8 11.13619 -11.13652 28.8 11.13619 -10e-7 33 15.75 -10e-7 33 15.75 -20.17767 25 17.67767 -20.17767 25 17.67767 -20.17767 25 17.67767 -17.68751 25 20.17764 -17.68751 25 20.17764 -15.17767 25 17.67767 -15.17767 25 17.67767 -15.17767 25 17.67767 -17.66784 25 15.1777 -17.66784 25 15.1777 -20.17767 25 -17.67767 -20.17767 25 -17.67767 -20.17767 25 -17.67767 -17.68751 25 -15.1777 -17.68751 25 -15.1777 -15.17767 25 -17.67767 -15.17767 25 -17.67767 -15.17767 25 -17.67767 -17.66783 25 -20.17764 -17.66783 25 -20.17764 15.17767 25 17.67767 15.17767 25 17.67767 15.17767 25 17.67767 17.66783 25 20.17764 17.66783 25 20.17764 20.17767 25 17.67767 20.17767 25 17.67767 20.17767 25 17.67767 17.6875 25 15.1777 17.6875 25 15.1777 15.17767 25 -17.67767 15.17767 25 -17.67767 15.17767 25 -17.67767 17.66783 25 -15.1777 17.66783 25 -15.1777 20.17767 25 -17.67767 20.17767 25 -17.67767 20.17767 25 -17.67767 17.68751 25 -20.17764 17.68751 25 -20.17764 -5.196155 18.21133 34 -5.196155 18.21133 34 -5.196155 18.21133 34 -5.196155 12.78868 34 -5.196155 12.78868 34 -5.196155 12.78868 34 -5.129018 12.53876 34 -5.129018 12.53876 34 -4.946155 12.35566 34 -4.946155 12.35566 34 -4.946155 12.35566 34 -0.250003 9.644339 34 -0.250003 9.644339 34 -0.250003 9.644339 34 -3e-6 9.577523 34 -3e-6 9.577523 34 0.249997 9.644339 34 0.249997 9.644339 34 0.249997 9.644339 34 4.94615 12.35566 34 4.94615 12.35566 34 4.94615 12.35566 34 5.129014 12.53876 34 5.129014 12.53876 34 5.19615 12.78868 34 5.19615 12.78868 34 5.19615 12.78868 34 5.19615 18.21133 34 5.19615 18.21133 34 5.19615 18.21133 34 5.129014 18.46124 34 5.129014 18.46124 34 4.94615 18.64434 34 4.94615 18.64434 34 4.94615 18.64434 34 0.249998 21.35566 34 0.249998 21.35566 34 0.249998 21.35566 34 -2e-6 21.42248 34 -2e-6 21.42248 34 -0.250002 21.35566 34 -0.250002 21.35566 34 -0.250002 21.35566 34 -4.946155 18.64434 34 -4.946155 18.64434 34 -4.946155 18.64434 34 -5.129018 18.46124 34 -5.129018 18.46124 34 -4.846154 18.47113 37 -4.846154 18.47113 37 -4.846154 18.47113 37 -0.150002 21.18246 37 -0.150002 21.18246 37 -0.150002 21.18246 37 -1.24e-4 21.2223 37 -1.24e-4 21.2223 37 0.149998 21.18246 37 0.149998 21.18246 37 0.149998 21.18246 37 4.846149 18.47113 37 4.846149 18.47113 37 4.846149 18.47113 37 4.955591 18.36125 37 4.955591 18.36125 37 4.99615 18.21133 37 4.99615 18.21133 37 4.99615 18.21133 37 4.99615 12.78868 37 4.99615 12.78868 37 4.99615 12.78868 37 4.955713 12.63896 37 4.955713 12.63896 37 4.846149 12.52887 37 4.846149 12.52887 37 4.846149 12.52887 37 0.1499969 9.817543 37 0.1499969 9.817543 37 0.1499969 9.817543 37 1.19e-4 9.777705 37 1.19e-4 9.777705 37 -0.150003 9.817543 37 -0.150003 9.817543 37 -0.150003 9.817543 37 -4.846154 12.52887 37 -4.846154 12.52887 37 -4.846154 12.52887 37 -4.955595 12.63875 37 -4.955595 12.63875 37 -4.996154 12.78868 37 -4.996154 12.78868 37 -4.996154 12.78868 37 -4.996154 18.21133 37 -4.996154 18.21133 37 -4.996154 18.21133 37 -4.955718 18.36104 37 -4.955718 18.36104 37 5.19615 12.78868 36.8 5.19615 12.78868 36.8 5.19615 12.78868 36.8 5.19615 12.78868 36.8 5.19615 18.21133 36.8 5.19615 18.21133 36.8 5.19615 18.21133 36.8 5.19615 18.21133 36.8 4.94615 18.64434 36.8 4.94615 18.64434 36.8 4.94615 18.64434 36.8 4.94615 18.64434 36.8 0.249998 21.35566 36.8 0.249998 21.35566 36.8 0.249998 21.35566 36.8 0.249998 21.35566 36.8 -0.250002 21.35566 36.8 -0.250002 21.35566 36.8 -0.250002 21.35566 36.8 -0.250002 21.35566 36.8 -4.946155 18.64434 36.8 -4.946155 18.64434 36.8 -4.946155 18.64434 36.8 -4.946155 18.64434 36.8 -5.196155 18.21133 36.8 -5.196155 18.21133 36.8 -5.196155 18.21133 36.8 -5.196155 18.21133 36.8 -5.196155 12.78868 36.8 -5.196155 12.78868 36.8 -5.196155 12.78868 36.8 -5.196155 12.78868 36.8 -4.946155 12.35566 36.8 -4.946155 12.35566 36.8 -4.946155 12.35566 36.8 -4.946155 12.35566 36.8 -0.250003 9.644339 36.8 -0.250003 9.644339 36.8 -0.250003 9.644339 36.8 -0.250003 9.644339 36.8 0.249997 9.644339 36.8 0.249997 9.644339 36.8 0.249997 9.644339 36.8 0.249997 9.644339 36.8 4.94615 12.35566 36.8 4.94615 12.35566 36.8 4.94615 12.35566 36.8 4.94615 12.35566 36.8 -5.129168 18.46133 36.8 -5.129168 18.46133 36.8 -2e-6 21.42265 36.8 -2e-6 21.42265 36.8 5.129163 18.46133 36.8 5.129163 18.46133 36.8 -5.129168 12.53868 36.8 -5.129168 12.53868 36.8 -3e-6 9.577351 36.8 -3e-6 9.577351 36.8 5.129163 12.53868 36.8 5.129163 12.53868 36.8 -5.137577 18.21133 36.94142 -5.137577 18.21133 36.94142 -4.916865 18.59361 36.94142 -4.916865 18.59361 36.94142 -5.137577 12.78868 36.94142 -5.137577 12.78868 36.94142 -4.916865 12.40639 36.94142 -4.916865 12.40639 36.94142 -0.220714 9.695069 36.94142 -0.220714 9.695069 36.94142 0.220708 9.695069 36.94142 0.220708 9.695069 36.94142 4.916861 12.40639 36.94142 4.916861 12.40639 36.94142 5.137572 12.78868 36.94142 5.137572 12.78868 36.94142 5.137572 18.21133 36.94142 5.137572 18.21133 36.94142 4.916861 18.59361 36.94142 4.916861 18.59361 36.94142 0.220709 21.30493 36.94142 0.220709 21.30493 36.94142 -0.220713 21.30493 36.94142 -0.220713 21.30493 36.94142 -2e-6 19.5 37 -2e-6 19.5 37 -2e-6 19.5 37 -4.000002 15.5 37 -4.000002 15.5 37 -3e-6 11.5 37 -3e-6 11.5 37 -3e-6 11.5 37 3.999998 15.5 37 3.999998 15.5 37 -3e-6 12.5 43 -3e-6 12.5 43 -3e-6 12.5 43 -3.000003 15.5 43 -3.000003 15.5 43 -3e-6 18.5 43 -3e-6 18.5 43 -3e-6 18.5 43 2.999997 15.5 43 2.999997 15.5 43 -3e-6 19.5 42 -3e-6 19.5 42 -3e-6 19.5 42 -3e-6 19.5 42 -4.000003 15.5 42 -4.000003 15.5 42 -3e-6 11.5 42 -3e-6 11.5 42 -3e-6 11.5 42 -3e-6 11.5 42 3.999997 15.5 42 3.999997 15.5 42 -3e-6 19.2071 42.70711 -3e-6 19.2071 42.70711 -3e-6 11.7929 42.70711 -3e-6 11.7929 42.70711</float_array>
          <technique_common>
            <accessor source="#F-mesh-positions-array" count="671" stride="3">
              <param name="X" type="float"/>
              <param name="Y" type="float"/>
              <param name="Z" type="float"/>
            </accessor>
          </technique_common>
        </source>
        <source id="F-mesh-normals">
          <float_array id="F-mesh-normals-array" count="3372">0 0 1 1 5.126e-6 -3.09032e-5 1 5.27501e-6 0 -7.13985e-4 -0.9999998 3.13371e-5 0.7075033 0.7067101 -3.69549e-6 6.70202e-4 0.9999998 1.81794e-5 1 5.63264e-6 -1.70767e-5 1 1.29701e-5 1.98185e-6 0.7075551 0.7066583 -3.76999e-6 1 1.30236e-5 2.01498e-6 -0.7078019 -0.706411 -1.22786e-5 -6.0498e-4 -0.9999998 -2.70009e-5 -1 1.08778e-6 2.00868e-5 0.7070969 -0.7071167 -9.23872e-7 1 -2.34097e-5 -1.98334e-5 -7.34355e-4 -0.9999998 6.67572e-6 -5.2962e-6 -1 2.5969e-5 0.7071197 -0.707094 1.50949e-5 -6.76453e-4 -0.9999998 -2.18601e-5 -0.707798 -0.706415 -4.60446e-6 1.00195e-4 -1 2.9371e-5 -7.14675e-4 -0.9999998 -1.49012e-7 -1 -5.03659e-6 -3.10397e-5 -1 -5.03659e-6 0 7.14112e-4 0.9999998 3.13371e-5 -0.7077996 -0.7064133 4.00841e-6 -1 -2.44379e-6 -1.58531e-5 -1 -2.44938e-6 -6.94021e-6 -0.7063627 0.7078501 -2.66135e-5 -1 -3.17097e-5 5.33462e-6 5.86012e-4 0.9999998 1.49906e-5 1.21431e-5 1 -1.80081e-5 -0.7064025 0.7078104 1.50502e-5 5.87463e-4 0.9999998 1.96136e-5 0.7074959 0.7067174 -1.40071e-6 -4.76837e-7 1 1.55918e-6 7.18512e-4 0.9999998 3.00556e-5 -0.3473106 0.4939343 0.7971226 -0.5514261 1.3113e-6 0.8342238 -0.3350966 0.5055003 0.7950973 -0.5513793 -0.001887619 0.8342525 -0.3359909 -0.5046089 0.7952862 -0.5513773 -1.77026e-5 0.8342561 -0.3472996 0.4938887 0.7971556 -0.5513856 -0.001904129 0.8342484 -0.551384 1.32779e-5 0.8342516 -0.3472934 0.4939143 0.7971423 -0.335099 0.5054964 0.7950989 -7.10646e-6 0.6344516 0.7729626 -1.82539e-5 0.6344642 0.7729523 -1.8198e-5 0.6344619 0.7729543 0.3359083 0.5047932 0.795204 1.86246e-5 0.6344543 0.7729604 -0.34727 0.4938884 0.7971687 1.86265e-5 0.6344552 0.7729597 0.3455099 0.4955039 0.7969309 0.3359249 0.50471 0.7952498 0.5514132 9.56957e-6 0.8342323 0.3455209 0.4955118 0.7969213 -2.28286e-5 0.6344707 0.772947 0.3359267 0.5047117 0.7952481 0.5514349 -0.002007901 0.8342157 0.5514177 5.57676e-6 0.8342294 0.3356093 -0.5049807 0.7952114 0.5514002 -0.001978814 0.8342385 0.3455132 0.4955131 0.7969238 0.5514351 -1.29342e-5 0.8342178 0.5513805 -0.00195378 0.8342517 0.3357099 -0.5049875 0.7951645 -2.84612e-5 -0.6344857 0.7729347 -1.12504e-5 -0.6344006 0.7730044 -1.11219e-5 -0.634463 0.7729533 -0.3359955 -0.5045942 0.7952935 0.5514119 -0.001988053 0.8342309 -1.16229e-5 -0.6344065 0.7729997 -1.16229e-5 -0.6343792 0.7730221 -0.5513332 -0.001933455 0.8342829 1.01179e-4 -0.6345129 0.7729124 -0.3360467 -0.5046383 0.7952439 -6.38515e-6 -7.4862e-6 1 -6.38142e-6 9.0301e-6 1 0.2475821 9.32813e-6 0.968867 -0.4999971 -1.67936e-5 0.8660271 -0.2475962 -8.62777e-6 0.9688634 1.87783e-5 -1.30832e-5 1 -7.31654e-6 4.02561e-5 1 -0.4999924 -1.43424e-6 0.8660298 -7.33137e-6 -6.16462e-6 1 0.5007889 -1.66744e-5 0.8655695 0.2475867 -4.25428e-6 0.9688658 0.177401 3.05474e-7 0.9841387 0.5000246 -7.86036e-6 0.8660113 1.07437e-5 2.35587e-5 1 0.2475881 -1.25244e-5 0.9688654 0.5008027 8.98827e-6 0.8655615 0.5000141 4.33624e-6 0.8660172 0.2475734 4.94719e-6 0.9688692 0.5008001 -2.59876e-5 0.865563 0.1774206 2.74181e-6 0.9841352 -1.24276e-5 -2.13385e-5 1 -1.78136e-4 0 1 1.3601e-5 -3.29316e-6 1 -0.1767131 1.55717e-6 0.9842624 -2.16515e-4 -2.7928e-5 1 0.5007945 -5.14835e-6 0.8655663 2.32756e-5 1.48511e-5 1 -0.2504051 -2.07592e-6 0.9681411 -0.1767133 -2.48197e-6 0.9842625 -0.2475728 1.88174e-6 0.9688694 -0.2503618 1.0021e-6 0.9681524 -2.07059e-4 6.4075e-7 1 -0.17669 -4.21703e-6 0.9842666 -0.2502843 -1.97976e-6 0.9681724 -0.2475913 2.09361e-6 0.9688647 -0.5000236 -7.20099e-6 0.8660118 -0.8655017 0 0.5009061 -0.8660296 -2.77381e-5 0.499993 -1 -2.25306e-5 8.40425e-6 -0.7071083 0.7071053 2.01166e-6 -0.7071121 0.7071014 2.03308e-6 -0.612406 0.7070966 0.3535155 -1 8.70131e-5 -1.04606e-5 -0.8655589 -1.60784e-5 0.5008072 -1 -1.58163e-5 -1.04904e-5 -0.8660294 -1.47671e-5 -0.4999932 -1 -5.90418e-6 -8.09133e-6 -1 -1.23399e-5 -8.09133e-6 -0.61202 0.7071225 -0.3541319 -0.7071011 0.7071126 1.33365e-5 -0.7071106 0.707103 1.33035e-5 -0.6124135 0.707101 -0.3534939 -0.7071185 0.7070951 -2.29916e-5 -0.6120312 0.7071264 -0.3541048 -0.8655416 -1.97068e-5 0.5008372 -0.5000074 -2.78075e-6 0.8660212 -0.8660214 3.38507e-7 0.500007 -0.3958855 0.7071113 0.5858911 -0.6123533 0.7071011 0.3535982 -0.3534862 0.707113 0.612404 -0.6124044 0.7071106 0.3534904 -0.7071077 0.7071059 7.92544e-6 -0.6124191 0.7070937 0.3534989 -0.3959067 0.7071065 0.5858825 -0.6123918 0.7071062 0.3535211 -0.6123926 0.7070777 0.353577 -0.3536869 0.7070975 0.6123062 -0.3535726 0.7070768 0.612396 5.03939e-6 0.707109 0.7071046 -0.4998829 -2.84219e-5 0.866093 -0.2503979 3.26708e-6 0.9681431 -0.5000075 4.41086e-6 0.8660212 -0.8655059 -6.95522e-5 0.5008988 -0.4999036 -1.43471e-5 0.8660811 -0.5000281 1.26585e-5 0.8660092 -0.3537043 0.7070982 0.6122952 -0.3959118 0.7070987 0.5858885 -0.3534935 0.7071046 0.6124095 -1.54078e-5 0.7071162 0.7070974 -1.56825e-5 0.7070963 0.7071173 0.3535791 0.707079 0.6123898 9.85069e-5 0.7070981 0.7071156 -0.3537155 0.7070986 0.6122884 2.71201e-6 0.7071149 0.7070987 0.5007953 1.37389e-5 0.8655657 0.8660211 1.07589e-5 0.5000075 0.5000067 1.58807e-5 0.8660215 0.612027 0.7071204 0.354124 0.3535051 0.7071124 0.6123938 0.6124053 0.7070994 0.3535113 0.1561952 0.7070619 0.6896859 3.08752e-5 0.7070568 0.7071568 0.3534988 0.7071422 0.6123631 0.3534035 0.7070881 0.6124807 0.1562071 0.7071259 0.6896176 0.3535737 0.7070799 0.6123918 0.6120389 0.7071239 0.3540965 0.3533805 0.7070809 0.6125022 0.3534912 0.7071081 0.6124069 1 -5.90418e-6 8.12113e-6 1 -1.23637e-5 8.12113e-6 0.8660294 -1.47894e-5 0.4999932 0.6120315 0.7071259 0.3541054 0.6124138 0.7071005 0.3534945 0.7071189 0.7070947 2.36081e-5 0.8660249 8.56467e-5 0.500001 1 8.02427e-6 1.70767e-5 0.8660249 5.25799e-6 0.500001 0.5007874 2.46206e-5 0.8655704 0.8660168 1.67924e-5 0.500015 0.8660167 -1.25095e-5 0.500015 0.8655589 -1.60336e-5 -0.5008074 1 -1.58163e-5 1.03116e-5 1 1.2388e-5 1.02818e-5 0.7071107 0.707103 -1.3472e-5 0.6120201 0.7071225 0.3541317 0.7071011 0.7071126 -1.35303e-5 0.612406 0.7070968 -0.3535153 0.7071083 0.7071053 -1.80304e-6 0.7071121 0.7071014 -1.82213e-6 0.8655017 0 -0.5009061 0.8660295 -2.78377e-5 -0.499993 1 -2.25604e-5 -8.43406e-6 0 -1 0 -0.866025 1.22917e-4 -0.5000008 -1 8.01682e-6 -1.6883e-5 -0.866025 5.24853e-6 -0.5000008 2.72479e-7 1 0 0 1 0 2.72478e-7 1 0 0 1 0 0 1 1.39299e-7 0 1 -1.43256e-6 0 1 3.37184e-7 0 1 -9.23768e-7 0 1 0 0 1 -3.15506e-7 0 1 2.55044e-6 2.72478e-7 1 0 2.72479e-7 1 0 0.6124021 0.7071133 -0.3534891 0.6124048 0.7071101 -0.3534907 0.7071081 0.7071055 -8.21345e-6 0.7071207 9.76026e-6 0.707093 0.269903 -4.61538e-5 0.9628875 0.7071546 1.59307e-5 0.707059 -3.35276e-6 -6.93797e-6 1 2.84251e-4 3.3043e-6 1 0.2699033 -4.58583e-6 0.9628875 0.707107 -1.58846e-5 0.7071066 -1.04308e-6 -1.51694e-5 1 0.2700024 -1.60038e-5 0.9628597 0.7071047 9.07114e-6 0.7071089 0.7071045 3.13917e-5 0.7071092 1 -1.4998e-5 -2.08039e-5 0 1 -2.78597e-7 1 2.54112e-5 8.85129e-6 1 1.83029e-5 8.85129e-6 0.7064517 -9.87202e-6 -0.7077613 1 -1.82818e-5 -1.21295e-5 0.7070984 -1.65924e-5 0.7071152 1 4.54535e-6 -1.21295e-5 0.7070986 8.94012e-6 -0.7071151 0.7064542 2.16416e-6 -0.7077589 0.2698803 1.27181e-5 -0.962894 0 1 1.34617e-7 0.7071029 -1.14052e-5 -0.7071107 1 -1.18762e-5 5.58794e-6 0.7064586 -5.00446e-6 -0.7077544 0 1 -2.21282e-7 0 1 2.79198e-7 -2.07312e-5 -9.62615e-6 -1 0.2698866 5.33604e-6 -0.9628922 -4.04179e-4 4.13554e-6 -1 0.7071174 -9.50694e-6 -0.7070962 0.2699108 3.99351e-6 -0.9628854 -1.32583e-5 -9.65595e-6 -1 0.3534949 0.7071013 -0.6124126 0.1562237 0.7071173 -0.6896227 0.353702 0.7071022 -0.6122919 0 1 -4.90926e-7 -1.72779e-5 0.7071083 -0.7071053 -1.72659e-5 0.7071027 -0.7071109 0.1562011 0.7071287 -0.6896161 0.3534821 0.7071252 -0.6123924 -1.6138e-5 0.7070993 -0.7071144 0.1562368 0.7071214 -0.6896154 0.6124053 0.7071009 -0.3535084 0.3537155 0.7071083 -0.6122772 0.6124035 0.7071031 -0.3535072 0.6123936 0.707117 -0.3534964 0.3535007 0.707111 -0.6123981 0.3537161 0.7070956 -0.6122914 -0.353576 0.7070759 -0.6123951 -0.3534036 0.7070885 -0.6124801 -1.08397e-5 0.7071179 -0.7070957 1.51526e-5 0.7070976 -0.707116 -0.3535795 0.7070801 -0.6123882 1.51098e-5 0.7071175 -0.7070961 2.22027e-5 1.83592e-5 -1 -4.09373e-4 -1.36811e-6 -1 -0.6839999 -3.19779e-5 -0.7294822 0 1 3.62926e-7 -0.707111 -1.0659e-6 -0.7071027 -0.6840043 8.82654e-7 -0.729478 -0.707111 1.72754e-7 -0.7071027 9.62987e-7 -1.41859e-5 -1 -0.683947 -1.23456e-5 -0.7295318 -0.7071117 1.9908e-5 -0.7071019 -0.3535063 0.7071057 -0.612401 -0.395892 0.7070993 -0.5859011 -0.3533921 0.7070854 -0.6124902 -0.6124135 0.7070988 -0.3534983 -0.6120004 0.7071048 -0.3542012 -0.395917 0.7070957 -0.5858887 -0.3535203 0.7070985 -0.6124012 -0.612424 0.7070843 -0.3535091 -0.3959014 0.707085 -0.585912 -0.7071047 9.07114e-6 -0.7071089 -0.7071045 3.13917e-5 -0.7071092 -1 -1.49086e-5 2.07899e-5 -1 2.54112e-5 -8.85129e-6 -1 1.83029e-5 -8.85129e-6 -0.7064517 -9.87202e-6 0.7077613 -0.7070984 -1.66819e-5 -0.7071153 -1 4.54535e-6 1.20997e-5 -1 -1.82818e-5 1.20699e-5 -0.7071136 -9.01433e-7 0.7071 -0.7065031 5.68922e-7 0.70771 -0.6839368 0 0.7295414 -0.7071028 -1.0469e-5 0.7071108 -1 -1.10343e-5 -5.60749e-6 -0.7064587 -4.07011e-6 0.7077543 -1.41356e-5 -1.35377e-5 1 -0.6838865 -1.357e-6 0.7295885 3.21388e-4 -2.06679e-5 1 -2.69176e-6 -1.55494e-5 1 -0.7071034 -2.76938e-5 0.7071102 -0.6838772 1.1663e-5 0.7295972 -0.5002144 -1.14739e-5 -0.8659017 -0.8660214 1.04715e-4 -0.500007 -0.5000069 1.06568e-5 -0.8660215 -0.5002148 -1.32763e-5 -0.8659015 -0.8660217 1.70259e-5 -0.5000066 -0.8660217 -1.03414e-5 -0.5000066 -0.2504106 1.0978e-5 -0.9681397 -0.5000002 1.26921e-5 -0.8660253 -2.01166e-6 0 -1 -0.2503964 -4.73362e-5 -0.9681435 -0.5002138 4.52602e-6 -0.865902 -0.5000061 4.04194e-6 -0.8660219 1.99422e-4 -1.2217e-5 -1 7.67534e-6 -4.13481e-5 -1 0.4999927 1.64732e-5 -0.8660296 2.09153e-4 -3.53157e-5 -1 -0.2504965 -9.71556e-6 -0.9681176 1.74046e-5 8.64241e-6 -1 0.5007957 2.19382e-5 -0.8655655 0.5000071 1.68781e-5 -0.8660213 0.8660213 9.93907e-6 -0.5000072 0.5007811 6.48992e-6 -0.8655741 1.99422e-4 -8.37445e-6 -1 0.4999925 5.35898e-6 -0.8660299 0.8655076 2.70329e-5 -0.5008959 0.5007786 1.46106e-5 -0.8655754 0.8660115 -9.31445e-6 -0.5000243 -0.6123995 -0.7071067 0.3535069 -0.3634167 -0.7070909 0.6065895 -0.6124008 -0.7071052 0.3535075 -0.3534957 -0.7071049 0.6124079 -0.3537322 -0.7070468 0.6123385 -0.3634169 -0.7070952 0.6065843 -0.6123996 -0.7071089 0.3535024 -0.3535045 -0.707107 0.6124005 -0.3633983 -0.7070971 0.6065933 -0.6123981 -0.7071089 0.3535048 -0.6124019 -0.7071046 0.3535069 -0.707104 -0.7071096 1.29696e-5 -0.7071034 -0.7071102 6.19888e-6 -0.7071053 -0.7071083 6.3125e-6 -0.6120434 -0.7071191 -0.3540982 -0.6124034 -0.7070998 0.3535137 -0.7071084 -0.7071051 1.81794e-6 -0.7071044 -0.7071092 1.82167e-6 -0.6123883 -0.7070823 -0.3535748 -0.612008 -0.7071063 -0.3541848 -0.3633967 -0.7070959 -0.6065956 -0.6124051 -0.7071022 -0.353506 -0.7071025 -0.7071111 -1.02052e-5 -0.6119925 -0.707108 -0.3542084 -0.3535024 -0.7071054 -0.6124035 -0.3633794 -0.7070957 -0.6066063 -0.3534075 -0.7071308 -0.6124289 -0.6123993 -0.7071044 -0.3535119 -0.3634051 -0.7070955 -0.6065911 -0.353514 -0.7071023 -0.6124004 -0.3535752 -0.7070869 -0.6123828 -0.3534108 -0.7070836 -0.6124816 -1.19563e-4 -0.7070993 -0.7071143 2.40728e-5 -0.7071031 -0.7071105 -1.19754e-4 -0.7071028 -0.7071108 0.1815924 -0.7071012 -0.6833975 -0.3534901 -0.7071096 -0.6124057 -1.19343e-4 -0.7070995 -0.7071142 -2.34228e-5 -0.7071069 -0.7071067 0.3534932 -0.7071057 -0.6124085 0.1816144 -0.7071028 -0.68339 0.3537046 -0.7070983 -0.6122949 -1.49489e-5 -0.7071197 -0.707094 0.1816039 -0.7070852 -0.683411 0.3535214 -0.7071099 -0.6123873 0.6124115 -0.7071047 -0.3534902 0.3537181 -0.7070923 -0.6122941 0.6124077 -0.7071091 -0.3534878 0.3534924 -0.7071083 -0.6124058 0.353706 -0.7070967 -0.6122961 0.61242 -0.707092 -0.3535007 0.6123961 -0.7071111 -0.353504 0.6123996 -0.7071068 -0.3535064 0.7071021 -0.7071115 -1.2219e-5 0.7071034 -0.7071102 -6.33299e-6 0.7071053 -0.7071083 -6.45593e-6 0.6120435 -0.7071191 0.3540982 0.6124035 -0.7070998 -0.3535136 0.7071084 -0.7071051 -1.68383e-6 0.7071043 -0.7071092 -1.69175e-6 0.3534964 -0.707103 0.6124098 0.6120035 -0.7071 0.3542054 0.3533821 -0.7070822 0.6124998 0.612403 -0.7071045 0.3535051 0.7071003 -0.7071133 9.46224e-6 0.6120074 -0.7070899 0.3542187 0.3535866 -0.7070651 0.6124014 0.6123882 -0.7070807 0.3535782 0.6120049 -0.7071083 0.3541863 0.3534963 -0.7071013 0.6124118 0.3533788 -0.707087 0.6124961 0.1816005 -0.7071008 0.6833958 0.3535572 -0.7071374 0.612335 0.1815721 -0.7071055 0.6833985 6.64443e-5 -0.7071143 0.7070993 -2.11895e-5 -0.7071079 0.7071056 1.2262e-4 -0.707107 0.7071066 -0.353704 -0.7071011 0.6122921 2.34237e-5 -0.7071068 0.7071068 0.3534901 -0.7071095 0.6124058 1.19343e-4 -0.7070994 0.7071142 -0.3535015 -0.7071025 0.6124075 -1.45074e-5 -0.7071102 0.7071033 -0.3537095 -0.7071016 0.6122883 -0.8655772 -2.10723e-6 0.5007755 -0.8660277 -0.001895368 0.4999926 -1 1.17421e-5 1.52737e-5 -1 0 -2.13981e-5 -0.8655403 -1.17794e-5 0.5008392 -1 1.26158e-5 -2.14279e-5 -0.8660294 1.16825e-5 -0.4999933 -1 -4.07564e-6 -8.12113e-6 -1 0 -8.12113e-6 1 -4.07564e-6 8.03172e-6 1 0 8.01682e-6 0.8660294 1.17309e-5 0.499993 0.8655405 -1.17086e-5 -0.500839 1 1.26158e-5 2.16067e-5 1 0 2.16067e-5 0.8660278 -0.001894176 -0.4999923 1 1.09077e-5 -1.50818e-5 0.8655772 -9.07457e-7 -0.5007755 0.5000898 1.07363e-5 0.8659737 0.8660213 1.47462e-4 0.5000072 0.5000068 -1.68195e-6 0.8660215 0.8660876 7.6735e-5 0.4998924 1 -1.15149e-5 -1.23559e-5 0.8660156 -7.39434e-7 0.500017 0.5000943 -5.32415e-5 0.8659711 0.8660958 -1.59339e-5 0.4998781 0.8660239 -7.86036e-7 0.5000028 0.2104969 -8.04663e-7 0.9775946 0.5000141 6.67572e-6 0.8660174 6.33299e-6 -1.63317e-5 1 0.2104849 -1.47534e-4 0.9775972 0.5001034 8.75646e-6 0.8659657 0.5000203 9.19402e-6 0.8660137 -7.94232e-6 -1.62165e-5 1 -7.98702e-6 3.80644e-5 1 -0.499993 2.12714e-6 0.8660295 5.05149e-6 -1.06659e-4 1 0.210498 5.3905e-6 0.9775944 5.11855e-6 5.24892e-6 1 -0.5799998 -6.3628e-6 0.8146167 -0.4999994 -1.77622e-5 0.8660258 -0.8660244 -2.2769e-5 0.5000017 -0.4997183 6.96026e-4 0.8661878 2.05869e-5 -1.11982e-5 1 -0.5000081 2.15857e-6 0.8660207 -0.5800207 -1.81213e-4 0.8146017 -0.4997076 -3.0743e-6 0.8661941 -0.4999984 -3.08268e-6 0.8660264 -0.8655795 0.001574218 0.5007692 -0.580019 -9.27597e-6 0.814603 -0.8660093 -2.78337e-6 0.5000281 0 -1 0 0 -1 0 0 -1 0 0 -1 0 0 -1 1.34141e-7 2.02009e-7 -1 -1.52771e-6 0 -1 0 0 -1 0 -0.8660154 -2.06184e-6 -0.5000173 -0.8660876 7.55361e-5 -0.4998925 -1 -1.08294e-5 1.21212e-5 0 -1 0 0 -1 0 0 -1 0 -0.8660215 1.63913e-6 -0.5000069 -0.5799902 -4.20626e-5 -0.8146234 -0.8660933 -1.13869e-5 -0.4998822 -3.44059e-7 -1 3.28404e-7 -0.4999919 -3.67874e-6 -0.8660302 -0.5000748 -2.13926e-6 -0.8659822 -0.580015 -1.39326e-6 -0.814606 -0.8660141 4.24683e-6 -0.5000197 -0.5000131 1.67787e-5 -0.8660178 -0.5800199 4.09037e-6 -0.8146023 -2.28435e-5 -5.30274e-6 -1 -2.28137e-5 -1.60382e-4 -1 -0.5000889 -2.89641e-5 -0.8659741 -0.4999931 -2.16397e-4 -0.8660295 -8.0578e-6 1.14143e-5 -1 -0.5000761 -5.14224e-6 -0.8659816 0 -1 0 0.5000026 1.36793e-5 -0.866024 0.210496 3.21865e-6 -0.9775947 7.13468e-5 1.02222e-5 -1 0 -1 -3.25842e-7 0.5000217 -3.84345e-6 -0.8660129 0.4996901 4.09454e-4 -0.8662043 0.2104874 -5.22286e-6 -0.9775967 7.92742e-6 3.79894e-5 -1 0.499993 2.17557e-6 -0.8660295 7.94232e-6 -1.62914e-5 -1 0.5000227 -3.02866e-6 -0.8660123 0.8655499 -7.73033e-4 -0.500822 0.4996905 9.00088e-6 -0.866204 0.5000057 0.001890778 -0.8660201 0.8660179 -1.26779e-5 -0.5000132 0.8655382 1.15074e-5 -0.5008431 -0.7071004 0.7071133 -2.27094e-5 -0.7070983 0.7071154 -2.24132e-5 -0.4999935 0.7070947 0.5000237 -0.4994125 0.7071096 -0.5005828 -0.7070949 0.7071188 1.39177e-5 -0.7070946 0.707119 1.38227e-5 -0.4999904 0.7070992 -0.5000205 -0.7071236 0.7070899 1.98633e-5 -0.4994122 0.7071014 -0.5005948 -0.4999098 0.7071005 0.5000991 -0.5000051 0.7071098 0.4999907 1.17905e-5 0.7071036 0.70711 -0.4999852 0.7071127 0.5000064 -0.7070956 0.707118 1.57021e-6 -0.4999954 0.7070984 0.5000165 -6.61612e-6 0.7071177 0.7070959 -6.50436e-6 0.7071111 0.7071026 0.5000116 0.7070974 0.5000018 -6.77817e-6 0.7071034 0.7071102 -0.4999887 0.7071053 0.5000134 -6.91414e-6 0.7071021 0.7071115 0.4994121 0.7071015 0.5005949 0.4999904 0.7070993 0.5000203 0.7071238 0.7070897 -1.9908e-5 0.499391 0.7071176 0.5005931 -1.3317e-5 0.7071028 0.7071108 0.5000172 0.707096 0.499998 0.7070946 0.707119 -1.38227e-5 0.4994125 0.7071096 0.5005828 0.7070949 0.7071188 -1.39177e-5 0.4999935 0.7070947 -0.5000237 0.7071004 0.7071133 2.27094e-5 0.7070983 0.7071153 2.24151e-5 0 1 1.15509e-6 0 1 3.86197e-6 0 1 -1.62252e-6 0 1 3.03801e-6 0 1 6.65651e-7 0 1 3.84089e-6 0 1 -3.30007e-6 0 1 -1.15509e-6 0 1 -2.50469e-6 0 1 2.54384e-6 0.4999953 0.7070985 -0.5000165 0.4999851 0.7071129 -0.5000064 0.7070957 0.7071179 -1.53016e-6 -1.99378e-5 0.7070818 -0.7071319 -1.99825e-5 0.7071034 -0.7071102 -0.7071458 0.7070677 6.33299e-6 0.7071177 0.707096 -2.70531e-5 0.4965838 0.7071112 -0.5033869 2.51979e-5 0.7071078 -0.7071058 -2.05562e-5 0.7071176 -0.707096 0.7070894 0.7071242 2.05636e-5 -2.0653e-5 0.707142 -0.7070716 -0.7071053 0.7071082 3.27826e-7 -0.7071214 0.7070922 3.7998e-7 -0.4966011 0.7070955 0.5033918 9.90927e-7 0.7071263 -0.7070872 -0.7071191 0.7070945 9.53674e-7 -0.7070984 0.7071151 9.90927e-7 -0.7071177 0.707096 2.70531e-5 -0.4965838 0.7071112 0.5033869 -2.51979e-5 0.7071078 0.7071058 0 1 2.4437e-7 1.99378e-5 0.7070818 0.7071319 1.99825e-5 0.7071034 0.7071102 0.7071458 0.7070677 -6.33299e-6 2.05562e-5 0.7071176 0.707096 -0.7070894 0.7071242 -2.05636e-5 2.0653e-5 0.707142 0.7070716 0 1 1.02491e-6 -1.0699e-5 0.7071144 -0.7070993 -1.074e-5 0.7071129 -0.7071007 -0.4999942 0.7070918 -0.5000271 0.7071255 0.7070881 -8.28505e-6 0.7070886 0.707125 -8.22544e-6 -5.94556e-6 0.7070865 -0.7071271 -5.70714e-6 0.7070947 -0.7071189 0.7071365 0.7070772 3.72529e-6 -5.126e-6 0.7070791 -0.7071345 5.6088e-5 0.7071062 -0.7071075 -0.5000076 0.70709 -0.5000162 -0.707111 0.7071026 4.45098e-5 -0.7071255 0.7070881 8.28505e-6 -0.7070886 0.707125 8.22544e-6 5.94556e-6 0.7070865 0.7071271 7.45058e-7 0.7071231 -0.7070905 -0.7070912 0.7071223 5.96046e-7 -0.7070987 0.7071149 7.07805e-7 0 1 -3.54486e-7 0 1 4.25115e-7 0 1 -1.02491e-6 1.0699e-5 0.7071144 0.7070993 1.074e-5 0.7071129 0.7071007 0.4999942 0.7070918 0.5000271 5.70714e-6 0.7070947 0.7071189 -0.7071365 0.7070772 -3.72529e-6 5.126e-6 0.7070791 0.7071345 6.91414e-6 0.7071021 -0.7071115 6.77817e-6 0.7071034 -0.7071102 0.4999887 0.7071053 -0.5000134 0 1 -2.29751e-6 -0.5000171 0.7070963 -0.4999979 -0.4993909 0.7071179 -0.5005928 1.33738e-5 0.7071028 -0.7071108 5.77234e-6 0.7071122 -0.7071014 -0.5000121 0.7070983 -0.5000001 6.19888e-6 0.707119 -0.7070947 0 1 -6.65651e-7 0.5000053 0.7071095 -0.4999909 -1.16974e-5 0.7071036 -0.7071101 0.49991 0.7071003 -0.5000993 -5.6088e-5 0.7071062 0.7071075 0.5000076 0.70709 0.5000162 0.707111 0.7071026 -4.45098e-5 0 1 0 -7.45058e-7 0.7071231 0.7070905 0.7070912 0.7071223 -5.96046e-7 0.7070987 0.7071149 -7.07805e-7 0.7071053 0.7071082 -3.27826e-7 0.7071214 0.7070922 -3.7998e-7 0.4966011 0.7070955 -0.5033918 -9.90927e-7 0.7071263 0.7070872 0.7071191 0.7070945 -9.53674e-7 0.7070984 0.7071151 -9.90927e-7 -1 4.06259e-6 -2.01166e-5 -1 0 -2.00272e-5 0.003911137 -3.03686e-5 0.9999924 0.003907382 7.12369e-6 -0.9999924 -0.003905296 9.87436e-4 -0.9999919 -1 -2.31266e-5 2.17557e-5 -1 0 1.85072e-5 0.003912508 3.02345e-5 -0.9999924 -1 -4.06259e-6 1.84476e-5 -0.003907263 7.16327e-6 0.9999924 0.003905355 9.87282e-4 0.9999919 1 -2.32756e-5 -2.19047e-5 -0.003904998 -9.87282e-4 0.9999919 -1 2.32905e-5 -2.13981e-5 0.00390768 -6.82357e-6 0.9999924 1 3.96684e-6 1.88351e-5 1 0 1.89841e-5 -0.00391215 -3.02494e-5 -0.9999924 -0.003911137 3.02196e-5 0.9999924 1 -4.15833e-6 -2.00272e-5 1 0 -1.98185e-5 0.003905355 -9.87589e-4 -0.9999919 1 2.29627e-5 2.18749e-5 -0.003906965 -7.27642e-6 -0.9999924 -1 4.11046e-6 -1.89543e-5 -1 0 -1.89543e-5 0.00391215 -3.02196e-5 0.9999924 0.003907501 7.21903e-6 -0.9999924 -0.003904998 9.87435e-4 -0.999992 -1 -2.31117e-5 2.15173e-5 -1 0 1.94311e-5 0.003911614 3.0309e-5 -0.9999924 -1 -4.01471e-6 1.94907e-5 -0.003907084 7.06781e-6 0.9999924 0.003905475 9.87283e-4 0.9999919 1 -2.32905e-5 -2.19941e-5 -0.003905296 -9.87282e-4 0.9999919 -1 2.32756e-5 -2.17557e-5 0.003907382 -7.06722e-6 0.9999924 1 4.06259e-6 1.94907e-5 1 0 1.94311e-5 -0.003911614 -3.02196e-5 -0.9999924 -0.00391227 3.02345e-5 0.9999924 1 -4.06259e-6 -1.86563e-5 1 0 -1.87457e-5 0.003905296 -9.87282e-4 -0.9999919 1 2.32756e-5 2.17557e-5 -0.003907382 -7.06722e-6 -0.9999924 -1 4.4623e-6 -1.93417e-5 -1 3.03971e-7 -1.95205e-5 0.003911793 -3.00258e-5 0.9999924 0.003907144 7.27607e-6 -0.9999924 -0.003905177 9.87589e-4 -0.999992 -1 -2.29776e-5 2.17557e-5 -1 1.51986e-7 1.88351e-5 0.00391215 3.05921e-5 -0.9999924 -1 -3.81486e-6 1.88351e-5 -0.003907382 7.31496e-6 0.9999924 0.003904998 9.87435e-4 0.9999919 1 -2.31713e-5 -2.15471e-5 -0.003905236 -9.87589e-4 0.9999919 -1 2.3067e-5 -2.19941e-5 0.003906846 -7.46816e-6 0.9999924 1 4.06259e-6 1.86563e-5 1 0 1.86861e-5 -0.003912329 -3.02643e-5 -0.9999924 -0.003911614 3.02345e-5 0.9999924 1 -4.40043e-6 -1.94907e-5 1 0 -1.94907e-5 0.003905534 -9.87436e-4 -0.999992 1 2.3067e-5 2.20835e-5 -0.003907084 -7.12427e-6 -0.9999924 -1 4.06259e-6 -1.89543e-5 0.003912091 -3.02345e-5 0.9999924 0.003907084 7.06792e-6 -0.9999924 -0.003905653 9.87283e-4 -0.9999919 -1 -2.32905e-5 2.21133e-5 -1 0 1.97291e-5 0.003911256 3.02345e-5 -0.9999924 -1 -4.06259e-6 1.97291e-5 1 4.06259e-6 2.01166e-5 1 0 2.00272e-5 -0.003911137 -3.03686e-5 -0.9999924 0.003905415 -9.87282e-4 -0.999992 1 2.32905e-5 2.18749e-5 -0.003907263 -7.06757e-6 -0.9999924 -0.003906369 1.45427e-5 0.9999924 2.3216e-5 9.86916e-4 0.9999995 1 6.76513e-6 -2.27988e-5 1 0 -1.94907e-5 -0.003911554 -8.55327e-6 0.9999924 1 6.68848e-5 -1.94609e-5 -2.41101e-5 8.28505e-6 -1 1 -1.21302e-5 2.40207e-5 1 0 2.40803e-5 -1 -1.21302e-5 -2.40207e-5 -1 0 -2.40803e-5 2.41101e-5 8.28505e-6 1 0.003911614 -8.25524e-6 -0.9999924 -1 6.68848e-5 1.94609e-5 -1 0 1.94013e-5 -2.34544e-5 9.87023e-4 -0.9999995 -1 6.85453e-6 2.3067e-5 0.003906011 1.45658e-5 -0.9999924 -0.003905534 -9.8406e-4 0.9999919 -1 -4.76837e-6 -2.20239e-5 -2.40803e-5 5.52946e-5 1 -2.41995e-5 5.5369e-5 -1 0.003905236 -9.84165e-4 -0.999992 1 -4.91738e-6 2.20239e-5 0.001276433 2.46512e-5 0.9999993 2.0206e-5 -0.002532064 0.9999968 1 -6.08713e-5 -1.76225e-5 1 0 1.96993e-5 0.001322627 2.89977e-5 0.9999992 1 -3.70719e-5 1.96993e-5 -2.36649e-5 -2.89381e-5 -1 1 -4.686e-5 2.44081e-5 1 0 2.44081e-5 -1 -4.68577e-5 2.35736e-5 -1 0 2.35736e-5 2.37785e-5 -2.864e-5 1 -0.001322686 2.85655e-5 -0.9999992 -1 -3.70719e-5 -1.94907e-5 -1 0 -1.94907e-5 -2.02656e-5 -0.002532064 -0.9999968 -1 -6.08713e-5 1.75927e-5 -0.001276254 2.45327e-5 -0.9999992 -0.707073 -1.36793e-5 0.7071406 -1 3.24547e-5 4.8995e-5 1.7494e-5 5.90086e-6 1 0.001291692 0.001797139 0.9999976 -0.7071229 4.23193e-6 0.7070907 -7.89762e-6 -5.27699e-6 1 0 1 0 1.71038e-7 1 -1.52713e-7 -1.74642e-5 5.75185e-6 -1 0.7070731 -1.39475e-5 -0.7071406 1 3.22014e-5 -4.89354e-5 7.92742e-6 -5.44451e-6 -1 -0.001291632 0.001797139 -0.9999976 0.7071229 4.12017e-6 -0.7070907 0 1 -6.1036e-7 0 1 -6.10359e-7 0 1 6.1036e-7 0 1 6.1036e-7 0 0 -1 -1 0 0 -0.8660196 0.5000101 3.57593e-6 -0.8660197 0.50001 -4.82298e-5 -1 -2.04742e-5 0 -0.8660289 0.4999941 -1.96714e-5 -1 8.9705e-6 -1.57153e-5 -1 9.07481e-6 -1.23637e-5 -1 1.508e-5 1.67754e-5 -1 1.48714e-5 1.23947e-5 -0.8660169 -0.5000149 1.7019e-5 -0.8660098 -0.5000271 4.06281e-6 -0.8660097 -0.5000272 -4.7658e-5 -0.5000283 -0.8660091 6.14673e-7 -0.8660078 -0.5000308 -1.4725e-4 -1 -3.57628e-6 1.16788e-6 -0.8660076 -0.5000311 2.03548e-5 -0.4999999 -0.8660255 0 -0.8660224 -0.5000054 -1.97403e-5 -0.5000086 -0.8660205 -1.56845e-5 -0.5000085 -0.8660206 -1.23637e-5 -0.5000222 -0.8660127 1.67754e-5 -0.5000222 -0.8660127 1.23947e-5 6.30319e-6 -1 1.70041e-5 -0.5 -0.8660255 0 -6.4224e-6 -1 4.2055e-6 -6.36151e-6 -1 2.67112e-5 0.5000222 -0.8660127 5.83008e-7 -9.81963e-6 -1 -7.22797e-5 -0.4999946 -0.8660286 1.65775e-6 -9.89437e-6 -1 2.07801e-5 0.4999998 -0.8660256 0 9.86457e-6 -1 -1.96956e-5 0.4999948 -0.8660285 -1.57153e-5 0.4999947 -0.8660285 -8.68421e-5 0.500025 -0.8660111 1.67415e-5 0.500025 -0.866011 8.70441e-5 0.866008 -0.5000304 1.70432e-5 0.4999999 -0.8660255 0 0.8660208 -0.5000081 4.17742e-6 0.8660208 -0.5000081 -4.7594e-5 1 2.26945e-5 5.60656e-7 0.8660224 -0.5000054 -7.24029e-5 0.5000085 -0.8660206 1.61305e-6 0.8660224 -0.5000054 2.08039e-5 1 0 0 0.8660302 -0.4999917 -1.96733e-5 1 -6.4075e-6 -1.57153e-5 1 -6.3926e-6 -8.68422e-5 1 -2.26796e-5 1.67754e-5 1 -2.26796e-5 1.23947e-5 0.8660208 0.5000081 1.69855e-5 0.866008 0.5000304 4.15615e-6 0.866008 0.5000304 -4.75962e-5 0.500025 0.8660111 6.18398e-7 0.8660302 0.4999917 -7.25976e-5 1 6.4075e-6 1.35973e-6 0.8660302 0.4999917 2.04648e-5 0.5 0.8660255 0 0.8660224 0.5000054 -1.97403e-5 0.5000086 0.8660205 -1.56845e-5 0.5000085 0.8660206 -1.23637e-5 0.5000156 0.8660165 1.67754e-5 0.5000156 0.8660165 1.23947e-5 -1.40071e-5 1 1.69612e-5 0.4999999 0.8660255 0 1.40071e-5 1 4.20549e-6 1.39909e-5 1 2.67111e-5 -0.5000156 0.8660165 5.38304e-7 3.56115e-6 1 -7.22798e-5 0.4999893 0.8660317 1.7006e-6 3.54648e-6 1 2.07801e-5 -0.4999998 0.8660255 0 -3.53158e-6 1 -1.9649e-5 -0.4999893 0.8660317 -1.57153e-5 -0.4999893 0.8660317 -1.23637e-5 -0.5000299 0.8660082 1.67724e-5 -0.50003 0.8660081 1.23925e-5 -0.8660107 0.5000253 1.69836e-5 -0.4999998 0.8660255 0 -0.8660213 0.5000072 -7.30384e-5 -0.5000067 0.8660215 1.04122e-6 -0.8660214 0.5000069 2.0075e-5 -0.3534895 0.6124273 0.7070913 -1.98633e-5 -1.5974e-5 1 -1.79962e-5 -1.18268e-5 1 -0.3536196 0.6123635 0.7070815 1.31428e-5 1.24872e-5 1 -5.0664e-7 -1.78143e-5 1 -0.3534798 0.6124233 0.7070996 -0.3535472 0.6123865 0.7070977 2.22474e-5 -2.02656e-6 1 0.3534989 0.6124002 0.7071101 -1.51694e-5 9.61721e-5 1 -3.35276e-5 9.01073e-5 1 -0.3536305 0.6123113 0.7071213 -1.62423e-5 1.68681e-5 1 0.353535 0.6123751 0.7071137 0.3536036 0.6122991 0.7071452 -1.03638e-5 1.60038e-5 1 1.06916e-5 1.08853e-5 1 0.3534905 0.6124145 0.7071018 -2.43336e-5 -4.64916e-6 1 -2.2701e-5 -7.41763e-6 1 0.3535915 0.6123946 0.7070686 1.5378e-5 -2.8491e-5 1 0.3536246 0.6122986 0.7071352 0.7071447 1.86563e-5 0.7070689 2.41697e-5 1.98483e-5 1 1.49272e-5 3.93689e-5 1 0.3535349 0.612399 0.707093 -2.37823e-5 2.98023e-7 1 0.7071081 1.46553e-5 0.7071055 0.7071171 -2.74628e-5 0.7070965 1.26064e-5 1.89915e-5 1 1.94681e-5 -2.07871e-6 1 0.70712 2.44658e-5 0.7070936 -6.3777e-6 2.20515e-5 1 -5.42402e-6 1.82817e-5 1 0.7071199 -1.82818e-5 0.7070938 -5.48363e-6 -2.44658e-5 1 0.7071193 -2.20515e-5 0.7070944 0.3534853 -0.6123591 0.7071525 1.71661e-5 3.41982e-6 1 -1.58846e-5 -6.78599e-5 1 0.7071229 -2.56151e-5 0.7070907 -8.04663e-7 8.44896e-6 1 0.3536133 -0.6123874 0.7070639 0.3535519 -0.6123476 0.7071292 -1.65105e-5 -9.86457e-6 1 -3.28571e-6 1.99638e-5 1 0.3534866 -0.6124225 0.7070969 1.66446e-5 2.22027e-5 1 1.40474e-5 1.86217e-5 1 0.353545 -0.6123864 0.7070989 -2.60025e-5 8.04663e-7 1 0.3534775 -0.612424 0.7071 -0.3535087 -0.6123442 0.7071537 -3.42056e-5 8.9556e-5 1 -1.66595e-5 9.91672e-5 1 0.3535163 -0.6123964 0.7071048 1.62423e-5 -1.27852e-5 1 -0.3534901 -0.6124303 0.7070884 -0.353632 -0.6123244 0.7071092 9.23872e-6 -2.02358e-5 1 -1.18911e-5 -1.53594e-5 1 -0.353491 -0.6124173 0.7070992 2.27243e-5 1.49012e-6 1 1.99885e-5 4.66972e-6 1 -0.3535589 -0.6123382 0.7071337 -1.733e-5 2.5183e-5 1 -0.3536259 -0.6123007 0.7071328 -0.707134 3.41386e-5 0.7070796 1.02967e-5 1.44988e-5 1 1.70097e-5 -6.25849e-6 1 -0.3535328 -0.6123997 0.7070935 2.35736e-5 2.08616e-7 1 -0.7071083 -1.61007e-5 0.7071053 -0.7071235 -3.694e-5 0.7070901 -4.47035e-6 -1.64211e-5 1 -1.10844e-5 4.19468e-6 1 -0.7071174 -2.44677e-5 0.7070963 9.92417e-6 -2.20515e-5 1 8.9705e-6 -1.82817e-5 1 -0.7071174 1.82818e-5 0.7070962 8.9407e-6 2.44677e-5 1 -0.7071168 2.20515e-5 0.7070969 -0.3535189 0.6123629 0.7071323 -1.57356e-5 -3.93391e-6 1 1.91629e-5 6.54608e-5 1 -0.3536118 0.612388 0.7070641 -0.7071228 2.63155e-5 0.7070908 1.2517e-6 -7.63312e-6 1 0.7071112 -2.44845e-5 0.7071024 1 -2.2049e-5 1.88947e-5 1 -1.82797e-5 1.76132e-5 0.7071052 -2.57567e-5 0.7071084 0.8660371 -0.4999799 -1.5974e-5 1 3.74913e-5 3.12552e-6 0.7070903 2.20516e-5 0.7071233 0.7071227 1.82797e-5 0.7070909 1 2.44835e-5 1.49012e-6 0.3535941 0.612366 0.7070921 1 -6.11246e-5 -4.52995e-6 0.8660207 0.5000084 -7.89762e-6 0.3535907 0.6123486 0.7071087 0.7070895 2.04444e-5 0.7071242 1 -1.46553e-5 5.1111e-5 0.3534983 0.6124256 0.7070883 0.5000289 0.8660088 5.36442e-7 0.500025 0.866011 9.23684e-7 0.3534959 0.6124331 0.707083 0.8660202 0.5000091 1.23382e-5 0.4999977 0.8660269 1.02632e-5 0.3535069 0.6123667 0.7071351 0.3535122 0.6123663 0.7071327 0.5000129 0.8660181 1.67787e-5 -0.3535146 0.6123887 0.7071122 0.5000383 0.8660034 3.92497e-5 -2.16365e-5 1 2.31564e-5 -0.353503 0.6124145 0.7070956 0.3535093 0.6124184 0.7070891 0.5000274 0.8660095 2.61515e-5 -0.3534819 0.6124159 0.7071049 -0.4999778 0.8660382 -2.47955e-5 -0.5001241 0.8659538 -2.55402e-5 -0.3534983 0.6124245 0.7070893 4.69014e-6 1 -1.05798e-5 -0.5000087 0.8660205 2.06362e-5 -0.3535538 0.6123419 0.7071331 -0.5000177 0.8660153 6.02305e-5 -0.3534946 0.6123791 0.7071304 -0.7071241 1.37333e-5 0.7070896 -0.4999589 0.8660492 1.84774e-5 -0.8660359 0.4999821 1.72853e-6 -0.3534802 0.6124218 0.7071006 -0.5000101 0.8660196 -2.45646e-5 -0.7071427 -3.20375e-5 0.7070708 -0.7071112 2.44845e-5 0.7071024 -1 2.2049e-5 1.90437e-5 -1 1.82797e-5 1.77324e-5 -0.7071033 3.07262e-5 0.7071103 -0.866034 0.4999853 -1.56164e-5 -1 -3.14415e-5 6.90483e-6 -0.7070904 -2.20516e-5 0.7071232 -0.7071228 -1.82797e-5 0.7070909 -1 -2.44826e-5 1.37091e-6 -0.3535867 -0.6123688 0.7070933 -1 5.74887e-5 4.14252e-6 -0.8660191 -0.500011 -3.03984e-6 -0.3535028 -0.6123555 0.7071469 -0.7070909 -2.40505e-5 0.7071228 -1 1.19098e-5 4.91962e-5 -0.353487 -0.6124077 0.7071095 -0.500029 -0.8660088 -2.18749e-5 -0.5001687 -0.8659281 -1.70476e-5 -0.3534911 -0.6124256 0.707092 -0.8660224 -0.5000052 2.38121e-5 -0.5000028 -0.8660239 2.36966e-5 -0.3535309 -0.6124074 0.7070878 -0.3535361 -0.6124095 0.7070834 -0.5000138 -0.8660175 -5.126e-6 0.3534911 -0.6124013 0.707113 -0.5000604 -0.8659905 -3.20375e-5 1.97589e-5 -1 -3.71933e-5 0.3535277 -0.6123716 0.7071204 -0.3536221 -0.6123532 0.7070891 -0.5000243 -0.8660114 3.61055e-5 0.3534793 -0.6124089 0.7071123 0.500041 -0.8660018 -1.61231e-5 0.4999804 -0.8660368 -1.54077e-5 0.3535179 -0.612414 0.7070886 -5.60284e-6 -1 -4.68791e-5 0.5000292 -0.8660086 1.56239e-5 0.3535765 -0.6123878 0.707082 0.3535712 -0.6123865 0.7070857 0.5000129 -0.8660181 -8.43406e-6 0.7071236 -1.84514e-5 0.70709 0.499957 -0.8660503 1.37985e-5 0.8660349 -0.4999837 0 0.7070905 -2.54884e-5 0.7071231 0.3536011 -0.6123531 0.7070998 0.5000163 -0.866016 -3.35947e-5 2.39611e-5 1 -9.31021e-6 -2.39909e-5 1 3.37785e-5 -1 2.39164e-5 5.29885e-5 1 -2.40803e-5 -8.90954e-6 1 -2.3693e-5 3.39481e-4 2.39164e-5 1 5.33462e-5 1 2.3976e-5 -5.31673e-5 -2.41399e-5 1 9.14081e-6 2.39909e-5 1 -3.39479e-5 -1 -2.38717e-5 -9.52728e-6 -1 -2.37227e-5 3.35878e-5 2.38866e-5 -1 5.28693e-5 -1 2.38717e-5 -3.37785e-5 -2.39313e-5 1 -5.30183e-5 -1 2.39909e-5 9.31439e-6 2.3663e-5 -1 -9.40976e-6 2.37525e-5 -1 3.37785e-5 1 2.37525e-5 5.31077e-5 2.39909e-5 -1 -3.37801e-5 -1 -2.3827e-5 -5.30481e-5 2.39313e-5 -1 9.41021e-6 1 2.39013e-5 -3.38549e-4 2.37226e-5 -1 -5.27501e-5 1 2.37226e-5 9.91088e-6 -1.69542e-6 0 1 4.19617e-5 -0.7070853 0.7071284 1.46627e-5 6.25849e-6 1 4.48525e-5 -2.48849e-5 1 1 2.56598e-5 2.04891e-5 2.69413e-5 2.21431e-5 1 -9.11951e-6 -1.5974e-5 1 1.37165e-5 -0.7071257 0.7070878 1 8.34465e-7 1.2368e-5 -1.33514e-5 -1.84029e-6 1 1.69542e-6 0 1 -1 -2.57492e-5 2.06381e-5 -2.68817e-5 -2.22027e-5 1 9.10461e-6 1.60336e-5 1 -3.09646e-5 -1 -3.02643e-5 -3.84003e-5 3.98755e-5 1 -1 4.90844e-5 5.36144e-5 -5.97537e-6 -0.7071007 0.7071129 4.71473e-5 -4.46811e-5 1 -3.23951e-5 -1 5.94854e-5 -4.06802e-5 0.7070869 0.7071267 -1.21891e-5 -3.78489e-6 1 -4.27365e-5 2.72691e-5 1 -1.35377e-5 0.7071259 0.7070878 -1 -2.68221e-7 1.22488e-5 1.33812e-5 1.86265e-6 1 1 -5.04106e-5 5.1409e-5 3.20077e-5 1 -3.08007e-5 4.03672e-5 -3.86536e-5 1 2.68221e-6 0.7070984 0.7071152 -5.0962e-5 4.15123e-5 1 3.38554e-5 1 6.27786e-5 -2.55704e-5 0.7070938 0.7071198 4.56721e-6 1 5.73546e-5 -1 1.49384e-6 -6.47753e-5 2.54512e-5 -0.7070938 0.7071198 -4.71249e-6 -1 5.73099e-5 1 -1.58139e-6 -6.47381e-5</float_array>
          <technique_common>
            <accessor source="#F-mesh-normals-array" count="1124" stride="3">
              <param name="X" type="float"/>
              <param name="Y" type="float"/>
              <param name="Z" type="float"/>
            </accessor>
          </technique_common>
        </source>
        <source id="F-mesh-map-0">
          <float_array id="F-mesh-map-0-array" count="3252">0.195645 0.900467 0.142138 0.903452 0.142138 0.849669 0.765419 0.317452 0.782465 0.317208 0.782465 0.356611 0.195645 0.846685 0.195645 0.900467 0.142138 0.849669 0.765419 0.343462 0.742396 0.364885 0.742396 0.323011 0.756928 0.317208 0.765419 0.343462 0.742396 0.323011 0.241203 0.877473 0.256919 0.846685 0.256919 0.900275 0.256919 0.869415 0.272707 0.846685 0.272707 0.896665 0.195645 0.873855 0.201794 0.846685 0.21842 0.876442 0.195645 0.901529 0.195645 0.873855 0.21842 0.876442 0.799513 0.356422 0.782465 0.356421 0.782869 0.317208 0.859188 0.131823 0.859188 0.167677 0.847195 0.157775 0.886743 0.33403 0.873035 0.36001 0.873035 0.302377 0.241203 0.874399 0.23517 0.901506 0.21842 0.87186 0.241203 0.846685 0.241203 0.874399 0.21842 0.87186 0.763978 0.859156 0.753566 0.890143 0.754103 0.860774 0.763611 0.894029 0.734668 0.912404 0.753566 0.890143 0.763978 0.859156 0.763611 0.894029 0.753566 0.890143 0.763978 0.859156 0.754103 0.860774 0.734668 0.841151 0.847195 0.168193 0.840811 0.163318 0.840651 0.133969 0.739335 0.834613 0.763978 0.859156 0.734668 0.841151 0.855839 0.302377 0.864238 0.307542 0.86242 0.335075 0.847195 0.131823 0.847195 0.168193 0.840651 0.133969 0.853105 0.335175 0.86242 0.335075 0.864238 0.36269 0.853105 0.335175 0.855839 0.302377 0.86242 0.335075 0.864239 0.302377 0.873035 0.334409 0.864239 0.362588 0.877394 0.131823 0.884618 0.135102 0.877394 0.161743 0.725365 0.8472 0.733101 0.890084 0.725365 0.895872 0.887284 0.632642 0.887284 0.579329 0.895487 0.605714 0.735103 0.557101 0.744455 0.557094 0.790903 0.600761 0.735103 0.456384 0.791114 0.509428 0.744455 0.557094 0.735103 0.557101 0.735103 0.456384 0.744455 0.557094 0.866313 0.640868 0.790903 0.600761 0.823652 0.58877 0.734668 0.640833 0.735103 0.557101 0.790903 0.600761 0.866313 0.640868 0.734668 0.640833 0.790903 0.600761 0.866313 0.640868 0.823652 0.58877 0.837893 0.55704 0.866749 0.556991 0.837893 0.55704 0.823943 0.523453 0.866749 0.556991 0.866313 0.640868 0.837893 0.55704 0.866806 0.508789 0.823943 0.523453 0.791114 0.509428 0.866806 0.508789 0.866749 0.556991 0.823943 0.523453 0.866806 0.508789 0.791114 0.509428 0.735103 0.456384 0.646999 0.861779 0.647115 0.73013 0.725365 0.72966 0.804564 0.1836439 0.811088 0.1802639 0.833757 0.278641 0.725365 0.861307 0.646999 0.861779 0.725365 0.72966 0.273978 0.752251 0.142138 0.652687 0.273785 0.652588 0.896178 0.849967 0.888917 0.750848 0.896178 0.753853 0.888917 0.850511 0.888917 0.750848 0.896178 0.849967 0.866315 0.36574 0.735103 0.456384 0.734668 0.365669 0.901467 0.552564 0.908819 0.473395 0.908819 0.564112 0.826383 0.278329 0.804564 0.1836439 0.833757 0.278641 0.804564 0.359764 0.826383 0.278329 0.833757 0.278641 0.877978 0.181641 0.885353 0.1802639 0.885353 0.280981 0.866749 0.456337 0.866806 0.508789 0.735103 0.456384 0.866315 0.36574 0.866749 0.456337 0.735103 0.456384 0.868645 0.297168 0.874989 0.285556 0.874989 0.300973 0.347288 0.777048 0.354414 0.775088 0.354414 0.876044 0.877978 0.278622 0.877978 0.181641 0.885353 0.280981 0.86639 0.640965 0.734668 0.734737 0.734741 0.640868 0.354532 0.73521 0.376372 0.638438 0.361197 0.738245 0.800296 0.236631 0.803646 0.195034 0.803646 0.294287 0.369054 0.639261 0.354532 0.584987 0.376372 0.638438 0.354532 0.73521 0.369054 0.639261 0.376372 0.638438 0.86639 0.834571 0.73474 0.834613 0.734668 0.734737 0.885353 0.180914 0.892647 0.1802639 0.892647 0.28014 0.866318 0.734691 0.86639 0.834571 0.734668 0.734737 0.86639 0.640965 0.866318 0.734691 0.734668 0.734737 0.908267 0 0.829028 0.131823 0.829028 1.73e-4 0.885353 0.277232 0.885353 0.180914 0.892647 0.28014 0.742396 0.09751695 0.774785 0.191328 0.768518 0.195034 0.908267 0 0.908149 0.131651 0.829028 0.131823 0.05388599 0.32284 0.05043697 0.326286 0 0.238831 0.139102 0.372088 0.138028 0.376848 0.05043697 0.326286 0.05388599 0.32284 0.139102 0.372088 0.05043697 0.326286 0.003980994 0.1421149 0 0.238831 0 0.1380439 0.004660964 0.237387 0.05388599 0.32284 0 0.238831 0.003980994 0.1421149 0.004660964 0.237387 0 0.238831 0.05398499 0.05392795 0 0.1380439 0.05057799 0.05044096 0.004765987 0.139096 0.003980994 0.1421149 0 0.1380439 0.05398499 0.05392795 0.004765987 0.139096 0 0.1380439 0.05398499 0.05392795 0.05057799 0.05044096 0.089513 0.02032399 0.09308099 0.02388697 0.089513 0.02032399 0.137965 2.4e-5 0.09308099 0.02388697 0.05398499 0.05392795 0.089513 0.02032399 0.139291 0.004715979 0.137965 2.4e-5 0.238748 0 0.139291 0.004715979 0.09308099 0.02388697 0.137965 2.4e-5 0.237673 0.004759967 0.238748 0 0.326339 0.05056196 0.237673 0.004759967 0.139291 0.004715979 0.238748 0 0.142331 0.752354 0.142138 0.652687 0.273978 0.752251 0.32289 0.05400794 0.326339 0.05056196 0.376776 0.1380169 0.32289 0.05400794 0.237673 0.004759967 0.326339 0.05056196 0.666805 0.07579398 0.690955 0.05167496 0.739479 0.135859 0.558244 0.03073698 0.606658 0.002983987 0.690955 0.05167496 0.666805 0.07579398 0.558244 0.03073698 0.690955 0.05167496 0.711709 0.184574 0.739479 0.135859 0.742396 0.220116 0.711709 0.184574 0.666805 0.07579398 0.739479 0.135859 0.666612 0.293042 0.742396 0.220116 0.739416 0.233007 0.711626 0.189392 0.711709 0.184574 0.742396 0.220116 0.666612 0.293042 0.711626 0.189392 0.742396 0.220116 0.658128 0.343188 0.739416 0.233007 0.690754 0.317165 0.666612 0.293042 0.739416 0.233007 0.658128 0.343188 0.633267 0.318277 0.658128 0.343188 0.606638 0.365669 0.666612 0.293042 0.658128 0.343188 0.633267 0.318277 0.633267 0.318277 0.606638 0.365669 0.509596 0.365669 0.55801 0.337915 0.509596 0.365669 0.425299 0.316977 0.55801 0.337915 0.633267 0.318277 0.509596 0.365669 0.44945 0.292859 0.55801 0.337915 0.425299 0.316977 0.376776 0.232794 0.44945 0.292859 0.425299 0.316977 0.742396 0.09751695 0.749642 0.09747099 0.774785 0.191328 0.804564 0.06272399 0.829028 0 0.828943 0.06271499 0.350474 0.494208 0.374853 0.494186 0.374801 0.531509 0.350066 0.582298 0.350474 0.494208 0.374801 0.531509 0.804564 0.06272399 0.828943 0.06271499 0.829028 0.180247 0.376776 0.232794 0.404545 0.184079 0.44945 0.292859 0.300044 0.822621 0.324424 0.822691 0.324424 0.90455 0.804648 0.1802639 0.804564 0.06272399 0.829028 0.180247 0.376838 0.135645 0.424288 0.108995 0.404545 0.184079 0.350066 0.584982 0.325688 0.584987 0.324945 0.509548 0.376776 0.232794 0.376838 0.135645 0.404545 0.184079 0.300044 0.904429 0.300044 0.822621 0.324424 0.90455 0.376838 0.135645 0.399412 0.0841 0.424288 0.108995 0.449642 0.07561099 0.424288 0.108995 0.399412 0.0841 0.349212 0.468042 0.324945 0.509548 0.324836 0.468124 0.350066 0.584982 0.324945 0.509548 0.349212 0.468042 0.876698 0.466586 0.884025 0.408841 0.884139 0.46492 0.509616 0.002983987 0.399412 0.0841 0.4255 0.05148798 0.876698 0.365669 0.884139 0.367747 0.884025 0.408841 0.509616 0.002983987 0.449642 0.07561099 0.399412 0.0841 0.876698 0.466586 0.876698 0.365669 0.884025 0.408841 0.742396 0.09751695 0.774785 0.003632962 0.749642 0.09747099 0.742396 0.09751695 0.768532 0 0.774785 0.003632962 0.85815 0.19137 0.865202 0.193125 0.868645 0.290162 0.861718 0.292264 0.85815 0.19137 0.868645 0.290162 0.522592 0 0.553275 0.03081297 0.449642 0.07561099 0.349212 0.468042 0.324836 0.468124 0.325625 0.379438 0.509616 0.002983987 0.522592 0 0.449642 0.07561099 0.606658 0.002983987 0.553275 0.03081297 0.522592 0 0.558244 0.03073698 0.553275 0.03081297 0.606658 0.002983987 0.85815 0.29777 0.833757 0.302377 0.833771 0.297759 0.349212 0.468042 0.325625 0.379438 0.350066 0.376878 0.85815 0.19137 0.868645 0.1802639 0.865202 0.193125 0.892647 0.278217 0.899524 0.280696 0.892647 0.364534 0.901013 0.84522 0.901013 0.750848 0.908295 0.829903 0.85815 0.29777 0.833771 0.297759 0.833757 0.1802639 0.299064 0.903741 0.274686 0.903551 0.274685 0.822861 0.85815 0.29777 0.833757 0.1802639 0.858136 0.180266 0.350066 0.376878 0.374445 0.376936 0.374476 0.3813 0.299064 0.823101 0.299064 0.903741 0.274685 0.822861 0.350474 0.494208 0.374476 0.3813 0.374853 0.494186 0.350474 0.494208 0.350066 0.376878 0.374476 0.3813 0.142138 0.846685 0.273978 0.752251 0.273784 0.846624 0.142138 0.846685 0.142331 0.752354 0.273978 0.752251 0.142477 0.417855 0.274685 0.376877 0.273767 0.462818 0.142477 0.417855 0.143057 0.376916 0.274685 0.376877 0.142138 0.462919 0.273767 0.462818 0.273767 0.563735 0.142138 0.462919 0.142477 0.417855 0.273767 0.462818 0.142138 0.563974 0.273767 0.563735 0.274685 0.652588 0.142138 0.563974 0.142138 0.462919 0.273767 0.563735 0.143054 0.652513 0.142138 0.563974 0.274685 0.652588 0.37201 0.237753 0.376776 0.1380169 0.376743 0.238927 0.372115 0.139461 0.32289 0.05400794 0.376776 0.1380169 0.37201 0.237753 0.372115 0.139461 0.376776 0.1380169 0.352828 0.283873 0.376743 0.238927 0.356387 0.287444 0.352828 0.283873 0.37201 0.237753 0.376743 0.238927 0.32279 0.32292 0.356387 0.287444 0.326198 0.326407 0.32279 0.32292 0.352828 0.283873 0.356387 0.287444 0.32279 0.32292 0.326198 0.326407 0.238611 0.376877 0.234548 0.372892 0.238611 0.376877 0.138028 0.376848 0.237485 0.372132 0.238611 0.376877 0.234548 0.372892 0.237485 0.372132 0.32279 0.32292 0.238611 0.376877 0.139102 0.372088 0.234548 0.372892 0.138028 0.376848 0.34966 0.680105 0.330568 0.587626 0.354532 0.680018 0.324836 0.587477 0.329073 0.584987 0.330568 0.587626 0.34966 0.680105 0.324836 0.587477 0.330568 0.587626 0.34966 0.680105 0.354532 0.680018 0.329055 0.775088 0.901598 0.736242 0.896687 0.738234 0.896687 0.640868 0.34966 0.680105 0.329055 0.775088 0.324836 0.772735 0.142138 0.739566 0.140744 0.744161 0.05788195 0.69714 0.901598 0.641561 0.901598 0.736242 0.896687 0.640868 0.05908197 0.691601 0.05788195 0.69714 0.05565798 0.694952 0.142138 0.739566 0.05788195 0.69714 0.05908197 0.691601 0.05908197 0.691601 0.05565798 0.694952 0.006483972 0.609758 0.01112896 0.60854 0.006483972 0.609758 0 0.560882 0.05908197 0.691601 0.006483972 0.609758 0.01112896 0.60854 0.01112896 0.512636 0 0.560882 0.006486952 0.511276 0.01112896 0.60854 0 0.560882 0.01112896 0.512636 0.05908197 0.429589 0.006486952 0.511276 0.05568897 0.42608 0.01112896 0.512636 0.006486952 0.511276 0.05908197 0.429589 0.05908197 0.429589 0.05568897 0.42608 0.140933 0.376878 0.896578 0.47533 0.901467 0.473395 0.901467 0.570968 0.05908197 0.429589 0.140933 0.376878 0.142138 0.38165 0.799605 0.09491598 0.779189 0 0.804564 0.09495896 0.896578 0.570212 0.896578 0.47533 0.901467 0.570968 0.799605 0.09491598 0.774785 0.002272963 0.779189 0 0.799605 0.09491598 0.804564 0.09495896 0.797991 0.1444759 0.799605 0.09491598 0.797991 0.1444759 0.779101 0.189974 0.896178 0.752455 0.901013 0.750848 0.901013 0.849102 0.774785 0.187559 0.799605 0.09491598 0.779101 0.189974 0.896178 0.848136 0.896178 0.752455 0.901013 0.849102 0.812736 0.909206 0.788357 0.908952 0.788357 0.834613 0.812736 0.83476 0.812736 0.909206 0.788357 0.834613 0.300044 0.727941 0.324607 0.822603 0.300228 0.822621 0.274685 0.63881 0.299065 0.638803 0.299134 0.733685 0.763978 0.834613 0.788357 0.909942 0.763978 0.909889 0.788357 0.834776 0.788357 0.909942 0.763978 0.834613 0.274685 0.822854 0.299134 0.733685 0.299065 0.822861 0.274754 0.733686 0.274685 0.63881 0.299134 0.733685 0.274685 0.822854 0.274754 0.733686 0.299134 0.733685 0.300166 0.420881 0.324836 0.376877 0.324423 0.456423 0.300166 0.420881 0.300458 0.376881 0.324836 0.376877 0.300044 0.456447 0.324423 0.456423 0.324423 0.552104 0.300044 0.456447 0.300166 0.420881 0.324423 0.456423 0.300091 0.569213 0.324423 0.552104 0.324836 0.638284 0.300044 0.552048 0.300044 0.456447 0.324423 0.552104 0.300091 0.569213 0.300044 0.552048 0.324423 0.552104 0.300456 0.638159 0.300091 0.569213 0.324836 0.638284 0.533159 0.484315 0.376776 0.502675 0.424767 0.419649 0.502936 0.596873 0.376776 0.502675 0.533159 0.484315 0.376776 0.598752 0.376776 0.502675 0.502936 0.596873 0.533159 0.484315 0.424767 0.419649 0.507839 0.371735 0.533159 0.484315 0.507839 0.371735 0.564998 0.365669 0.686751 0.419702 0.564998 0.365669 0.603775 0.371773 0.698635 0.432777 0.564998 0.365669 0.686751 0.419702 0.533159 0.484315 0.564998 0.365669 0.698635 0.432777 0.734668 0.59872 0.698635 0.432777 0.734668 0.502644 0.659462 0.578543 0.698635 0.432777 0.734668 0.59872 0.533159 0.484315 0.698635 0.432777 0.659462 0.578543 0.686676 0.681746 0.659462 0.578543 0.734668 0.59872 0.300044 0.727941 0.324423 0.727929 0.324607 0.822603 0.686676 0.681746 0.620349 0.724318 0.659462 0.578543 0.502936 0.596873 0.659462 0.578543 0.620349 0.724318 0.502936 0.596873 0.533159 0.484315 0.659462 0.578543 0.300044 0.727941 0.324548 0.653009 0.324423 0.727929 0.502936 0.596873 0.620349 0.724318 0.603604 0.72966 0.300228 0.638287 0.324607 0.638284 0.324548 0.653009 0.300044 0.727941 0.300228 0.638287 0.324548 0.653009 0.471065 0.715497 0.502936 0.596873 0.603604 0.72966 0.507669 0.729622 0.471065 0.715497 0.603604 0.72966 0.275558 0.557159 0.299934 0.557137 0.299061 0.638801 0.274685 0.638803 0.275558 0.557159 0.299061 0.638801 0.376776 0.598752 0.502936 0.596873 0.471065 0.715497 0.275558 0.461288 0.300044 0.518566 0.299934 0.557137 0.376776 0.598752 0.471065 0.715497 0.424693 0.681693 0.275558 0.461288 0.299934 0.461345 0.300044 0.518566 0.275558 0.557159 0.275558 0.461288 0.299934 0.557137 0.275558 0.461288 0.299063 0.376999 0.299934 0.461345 0.275558 0.461288 0.274685 0.376877 0.299063 0.376999 0.354537 0.740987 0.361354 0.738245 0.361354 0.855796 0.122644 0.859223 0.11538 0.744161 0.122644 0.74716 0.11538 0.861665 0.11538 0.744161 0.122644 0.859223 0.122644 0.747378 0.130016 0.744161 0.130016 0.861493 0.354532 0.85295 0.354537 0.740987 0.361354 0.855796 0.361354 0.741104 0.36817 0.738245 0.36817 0.855795 0.122644 0.859111 0.122644 0.747378 0.130016 0.861493 0.725365 0.732198 0.73266 0.72966 0.73266 0.8472 0.361419 0.852902 0.361354 0.741104 0.36817 0.855795 0.725365 0.844295 0.725365 0.732198 0.73266 0.8472 0.36817 0.738245 0.374867 0.852939 0.36817 0.855796 0.431946 0.831666 0.376776 0.808778 0.455997 0.72966 0.387981 0.90674 0.376776 0.920881 0.376776 0.808778 0.431946 0.831666 0.431913 0.89791 0.376776 0.808778 0.403956 0.900171 0.376776 0.808778 0.431913 0.89791 0.403956 0.900171 0.387981 0.90674 0.376776 0.808778 0.552183 0.736432 0.455997 0.72966 0.567943 0.729729 0.545053 0.784896 0.455997 0.72966 0.552062 0.768005 0.542838 0.745705 0.552062 0.768005 0.455997 0.72966 0.470019 0.740951 0.455997 0.72966 0.545053 0.784896 0.454044 0.74752 0.431946 0.831666 0.455997 0.72966 0.552183 0.736432 0.542838 0.745705 0.455997 0.72966 0.470019 0.740951 0.454044 0.74752 0.455997 0.72966 0.56514 0.736483 0.567943 0.729729 0.646999 0.808779 0.552183 0.736432 0.567943 0.729729 0.56514 0.736483 0.635793 0.82292 0.646999 0.808779 0.646999 0.920882 0.574364 0.758784 0.56514 0.736483 0.646999 0.808779 0.565018 0.768057 0.574364 0.758784 0.646999 0.808779 0.552062 0.768005 0.565018 0.768057 0.646999 0.808779 0.629249 0.807009 0.552062 0.768005 0.646999 0.808779 0.629249 0.807009 0.646999 0.808779 0.635793 0.82292 0.591828 0.897994 0.591861 0.83175 0.646999 0.920882 0.619818 0.829489 0.646999 0.920882 0.591861 0.83175 0.567778 1 0.591828 0.897994 0.646999 0.920882 0.36817 0.738245 0.374872 0.740977 0.374867 0.852939 0.619818 0.829489 0.635793 0.82292 0.646999 0.920882 0.137452 0.746391 0.139877 0.744161 0.139877 0.766721 0.36975 0.857396 0.375637 0.868319 0.36975 0.87986 0.801946 0.335262 0.804305 0.317208 0.804305 0.336299 0.353201 0.898532 0.351323 0.900105 0.347288 0.887573 0.137452 0.746391 0.139877 0.766721 0.137452 0.765728 0.353201 0.898532 0.347288 0.887573 0.353201 0.876044 0.629249 0.807009 0.545053 0.784896 0.552062 0.768005 0.801946 0.337408 0.799513 0.339647 0.799513 0.317208 0.80263 0.29539 0.800296 0.313832 0.800296 0.294287 0.619818 0.829489 0.591861 0.83175 0.545053 0.784896 0.742396 0.201406 0.749641 0.195034 0.771322 0.257614 0.476563 0.756862 0.545053 0.784896 0.431946 0.831666 0.866806 0.374915 0.876698 0.365669 0.876698 0.473395 0.470019 0.740951 0.545053 0.784896 0.476563 0.756862 0.613274 0.813578 0.619818 0.829489 0.545053 0.784896 0.629249 0.807009 0.613274 0.813578 0.545053 0.784896 0.866806 0.470503 0.866806 0.374915 0.876698 0.473395 0.742396 0.201406 0.771322 0.257614 0.742396 0.317208 0.547212 0.972798 0.478721 0.944765 0.591828 0.897994 0.876208 0.741666 0.86639 0.750848 0.86639 0.640868 0.56973 0.98214 0.591828 0.897994 0.567778 1 0.563187 0.966229 0.591828 0.897994 0.56973 0.98214 0.563187 0.966229 0.547212 0.972798 0.591828 0.897994 0.876099 0.473395 0.876099 0.579329 0.866806 0.57449 0.567778 1 0.455832 0.999931 0.478721 0.944765 0.394525 0.922651 0.478721 0.944765 0.455832 0.999931 0.553755 0.988709 0.567778 1 0.478721 0.944765 0.403956 0.900171 0.431913 0.89791 0.478721 0.944765 0.800296 0.310634 0.792954 0.317203 0.771322 0.254605 0.394525 0.922651 0.4105 0.916082 0.478721 0.944765 0.403956 0.900171 0.478721 0.944765 0.4105 0.916082 0.547212 0.972798 0.553755 0.988709 0.478721 0.944765 0.876208 0.644078 0.876208 0.741666 0.86639 0.640868 0.130016 0.744161 0.137452 0.746272 0.137452 0.857636 0.394525 0.922651 0.455832 0.999931 0.376776 0.920881 0.1086789 0.744161 0.115316 0.747175 0.11538 0.858973 0.1086789 0.861712 0.1086789 0.744161 0.11538 0.858973 0.553755 0.988709 0.56973 0.98214 0.567778 1 0.130016 0.861105 0.130016 0.744161 0.137452 0.857636 0.387981 0.90674 0.394525 0.922651 0.376776 0.920881 0.800296 0.310634 0.771322 0.254605 0.800296 0.195034 0.460588 0.763431 0.476563 0.756862 0.431946 0.831666 0.454044 0.74752 0.460588 0.763431 0.431946 0.831666 0.868645 0.285556 0.868645 0.1802639 0.877978 0.185009 0.36975 0.857396 0.371574 0.855796 0.375637 0.868319 0.801946 0.337408 0.799513 0.317208 0.801946 0.318174 0.708505 0.861779 0.708505 0.910536 0.69297 0.910601 0.901598 0.738415 0.901598 0.689658 0.917693 0.68969 0.917732 0.738448 0.901598 0.738415 0.917693 0.68969 0.924314 5e-6 0.924314 0.04876399 0.908305 0.04875898 0.693061 0.861844 0.708505 0.861779 0.69297 0.910601 0.662217 0.910679 0.662217 0.861927 0.677434 0.861779 0.924314 5e-6 0.908305 0.04875898 0.908267 0 0.677343 0.91053 0.662217 0.910679 0.677434 0.861779 0.69297 0.861779 0.69297 0.910536 0.677435 0.910601 0.901598 0.689625 0.901598 0.640868 0.917693 0.6409 0.917732 0.689658 0.901598 0.689625 0.917693 0.6409 0.924314 0.09753298 0.924314 0.146292 0.908305 0.146288 0.677525 0.861844 0.69297 0.861779 0.677435 0.910601 0.354532 0.904696 0.354532 0.855945 0.36975 0.855796 0.924314 0.09753298 0.908305 0.146288 0.908267 0.09752798 0.369658 0.904547 0.354532 0.904696 0.36975 0.855796 0.72404 0.861779 0.72404 0.910536 0.708505 0.910601 0.904164 0.414426 0.904164 0.365669 0.920259 0.3657 0.920298 0.414459 0.904164 0.414426 0.920259 0.3657 0.920211 0.414464 0.920211 0.463223 0.904202 0.463218 0.708596 0.861844 0.72404 0.861779 0.708505 0.910601 0.122644 0.910393 0.122644 0.861641 0.137862 0.861493 0.920211 0.414464 0.904202 0.463218 0.904164 0.414459 0.1377699 0.910244 0.122644 0.910393 0.137862 0.861493 0.911022 0.579329 0.911022 0.628087 0.895487 0.628152 0.899524 0.326974 0.899524 0.278217 0.915619 0.278249 0.915658 0.327007 0.899524 0.326974 0.915619 0.278249 0.924314 0.04876899 0.924314 0.09752798 0.908305 0.09752297 0.895578 0.579394 0.911022 0.579329 0.895487 0.628152 0.646999 0.910679 0.646999 0.861927 0.662216 0.861779 0.924314 0.04876899 0.908305 0.09752297 0.908267 0.04876399 0.662125 0.91053 0.646999 0.910679 0.662216 0.861779 0.918781 0.327013 0.918781 0.356268 0.899547 0.356262 0.899524 0.327007 0.918781 0.327013 0.899547 0.356262 0.877394 0.131823 0.859188 0.161253 0.859188 0.1320019 0.903206 0.131823 0.903206 0.161078 0.884618 0.1611559 0.324836 0.913281 0.344174 0.884065 0.344197 0.91332 0.324836 0.884026 0.344174 0.884065 0.324836 0.913281 0.884672 0.131901 0.903206 0.131823 0.884618 0.1611559 0.216291 0.90153 0.216291 0.922256 0.195645 0.922255 0.216291 0.90153 0.195645 0.922255 0.195645 0.901529 0.877394 0.131823 0.877339 0.161074 0.859188 0.161253 0.896687 0.741806 0.876208 0.74187 0.876208 0.64089 0.896687 0.640868 0.896687 0.741806 0.876208 0.64089 0.892647 0.278217 0.892647 0.1802639 0.912627 0.18474 0.904164 0.465466 0.884139 0.46118 0.904164 0.365669 0.876099 0.473495 0.896577 0.574916 0.876099 0.574973 0.896578 0.473395 0.896577 0.574916 0.876099 0.473495 0.888917 0.804814 0.866391 0.859091 0.866391 0.750848 0.887284 0.579329 0.887033 0.638092 0.866805 0.579329 0.1086789 0.766688 0.1086789 0.875215 0.05439198 0.897737 0.1086789 0.766688 0.05439198 0.897737 0 0.87521 0.054286 0.744161 0 0.87521 0 0.766684 0.054286 0.744161 0.1086789 0.766688 0 0.87521 0.347288 0.884026 0.324836 0.829396 0.347288 0.775088 0.853105 0.364365 0.833757 0.357659 0.853105 0.302377 0.877394 0.179015 0.877394 0.161743 0.894599 0.1617439 0.877394 0.179015 0.894599 0.1617439 0.894599 0.1790159 0.142138 0.920724 0.142138 0.903452 0.159342 0.903453 0.142138 0.920724 0.159342 0.903453 0.159342 0.920724 0.859188 0.178525 0.859188 0.161253 0.876393 0.161254 0.859188 0.178525 0.876393 0.161254 0.876393 0.178526 0.238492 0.918778 0.238492 0.901506 0.255697 0.901507 0.238492 0.918778 0.255697 0.901507 0.255697 0.918779 0.861283 0.876836 0.812736 0.876572 0.812736 0.850136 0.1086789 0.861753 0.121133 0.861712 0.121133 0.888152 0.861283 0.8504 0.861283 0.876836 0.812736 0.850136 0.81305 0.848919 0.861283 0.8504 0.812736 0.850136 0.733876 0.742459 0.733876 0.754913 0.73266 0.754775 0.733876 0.742459 0.73266 0.754775 0.73266 0.742321 0.86097 0.878053 0.81305 0.877792 0.812736 0.876572 0.141098 0.744161 0.141098 0.756615 0.139877 0.756745 0.861283 0.876836 0.86097 0.878053 0.812736 0.876572 0.1086789 0.888193 0.1086789 0.861753 0.121133 0.888152 0.860115 0.878941 0.813904 0.878689 0.81305 0.877792 0.376485 0.538043 0.376483 0.551694 0.375599 0.551707 0.86097 0.878053 0.860115 0.878941 0.81305 0.877792 0.139877 0.744291 0.141098 0.744161 0.139877 0.756745 0.838178 0.89204 0.835842 0.892027 0.813904 0.878689 0.908267 0.146292 0.921918 0.14641 0.921918 0.169184 0.860115 0.878941 0.838178 0.89204 0.813904 0.878689 0.376485 0.538043 0.375599 0.551707 0.375601 0.538056 0.838178 0.89204 0.83701 0.892359 0.835842 0.892027 0.139892 0.804499 0.13989 0.81815 0.138674 0.818155 0.908267 0.169066 0.908267 0.146292 0.921918 0.169184 0.138676 0.804504 0.138674 0.818155 0.137452 0.81815 0.138676 0.804504 0.139892 0.804499 0.138674 0.818155 0.256919 0.896777 0.27057 0.896665 0.27057 0.919687 0.138676 0.804504 0.137452 0.81815 0.137454 0.804499 0.376501 0.524392 0.376499 0.538043 0.375599 0.53803 0.256919 0.9198 0.256919 0.896777 0.27057 0.919687 0.376092 0.738245 0.376092 0.750774 0.374872 0.750903 0.375601 0.524379 0.376501 0.524392 0.375599 0.53803 0.1086789 0.888208 0.121209 0.888193 0.121209 0.914634 0.376092 0.738245 0.374872 0.750903 0.374872 0.738373 0.81305 0.848919 0.86097 0.84918 0.861283 0.8504 0.733878 0.729791 0.733877 0.742321 0.73266 0.74219 0.1086789 0.914648 0.1086789 0.888208 0.121209 0.914634 0.813904 0.848031 0.860115 0.848283 0.86097 0.84918 0.299134 0.666125 0.299135 0.652473 0.300023 0.652464 0.81305 0.848919 0.813904 0.848031 0.86097 0.84918 0.73266 0.72966 0.733878 0.729791 0.73266 0.74219 0.835842 0.834933 0.838178 0.834945 0.860115 0.848283 0.105325 0.920657 0.09167397 0.920575 0.09167397 0.897737 0.813904 0.848031 0.835842 0.834933 0.860115 0.848283 0.299134 0.666125 0.300023 0.652464 0.300022 0.666116 0.835842 0.834933 0.83701 0.834613 0.838178 0.834945 0.137452 0.83181 0.137453 0.818158 0.13867 0.818155 0.105325 0.89782 0.105325 0.920657 0.09167397 0.897737 0.13867 0.831807 0.13867 0.818155 0.139891 0.818158 0.13867 0.831807 0.137452 0.83181 0.13867 0.818155 0.09167397 0.920696 0.078022 0.920777 0.078022 0.897818 0.13867 0.831807 0.139891 0.818158 0.13989 0.83181 0.299134 0.652455 0.299134 0.638803 0.30003 0.638812 0.09167397 0.897737 0.09167397 0.920696 0.078022 0.897818 0.30003 0.652464 0.299134 0.652455 0.30003 0.638812 0.86639 0.872033 0.867112 0.870853 0.889709 0.859243 0.374853 0.454239 0.375582 0.428878 0.375582 0.454283 0.86639 0.897371 0.86639 0.872033 0.889709 0.859243 0.890431 0.859091 0.86639 0.897371 0.889709 0.859243 0.376234 0.449814 0.376234 0.448674 0.376697 0.449249 0.374853 0.454239 0.374853 0.428834 0.375582 0.428878 0.86639 0.872033 0.866586 0.871342 0.867112 0.870853 0.376661 0.381048 0.376661 0.379215 0.376775 0.379937 0.374853 0.511692 0.375453 0.512109 0.374853 0.513728 0.376234 0.450826 0.376234 0.449814 0.376689 0.45037 0.375599 0.455099 0.376234 0.429874 0.376234 0.455212 0.375599 0.429761 0.376234 0.429874 0.375599 0.455099 0.890431 0.859091 0.866585 0.89808 0.86639 0.897371 0.376546 0.382561 0.376546 0.381052 0.376661 0.381615 0.376234 0.438916 0.376726 0.439331 0.376234 0.441037 0.891152 0.859311 0.867112 0.898619 0.866585 0.89808 0.376344 0.400971 0.376344 0.39993 0.376737 0.400573 0.890431 0.859091 0.891152 0.859311 0.866585 0.89808 0.913749 0.873039 0.889709 0.912347 0.867112 0.898619 0.376159 0.403322 0.375599 0.429757 0.375599 0.403318 0.891152 0.859311 0.913749 0.873039 0.867112 0.898619 0.376159 0.429761 0.375599 0.429757 0.376159 0.403322 0.914276 0.873578 0.89043 0.912567 0.889709 0.912347 0.376425 0.381083 0.376425 0.379215 0.376546 0.37994 0.913749 0.873039 0.914276 0.873578 0.889709 0.912347 0.376723 0.438916 0.376234 0.438645 0.376723 0.43679 0.91447 0.874286 0.891152 0.912415 0.89043 0.912567 0.37671 0.400971 0.37671 0.402135 0.376344 0.401494 0.914276 0.873578 0.91447 0.874286 0.89043 0.912567 0.91447 0.899624 0.913749 0.900805 0.891152 0.912415 0.375481 0.403318 0.374853 0.428834 0.374853 0.40343 0.91447 0.874286 0.91447 0.899624 0.891152 0.912415 0.375481 0.428723 0.374853 0.428834 0.375481 0.403318 0.91447 0.899624 0.914275 0.900316 0.913749 0.900805 0.376661 0.379215 0.376661 0.381052 0.376546 0.380328 0.375448 0.515763 0.374853 0.515532 0.375448 0.513728 0.376761 0.402135 0.376761 0.403318 0.376344 0.402732 0.37558 0.454283 0.374853 0.47967 0.374853 0.454332 0.37558 0.479621 0.374853 0.47967 0.37558 0.454283 0.376775 0.381048 0.376775 0.382482 0.376669 0.381965 0.375506 0.511692 0.374853 0.51137 0.375506 0.509571 0.376693 0.44749 0.376693 0.448674 0.376234 0.448076 0.375599 0.403317 0.376344 0.376878 0.376344 0.403317 0.375599 0.376878 0.376344 0.376878 0.375599 0.403317 0.376344 0.381124 0.376344 0.379215 0.376425 0.379943 0.374853 0.509571 0.374853 0.507445 0.375507 0.507801 0.374853 0.403318 0.375599 0.376878 0.375599 0.403318 0.375599 0.55371 0.376473 0.552658 0.376327 0.553876 0.374853 0.403318 0.374853 0.376878 0.375599 0.376878 0.376473 0.553962 0.375746 0.556039 0.375599 0.554823 0.376473 0.553962 0.376473 0.555872 0.375746 0.556039 0.375546 0.47967 0.374853 0.502647 0.374853 0.47981 0.376473 0.553962 0.375599 0.554823 0.375746 0.553876 0.375546 0.47967 0.375546 0.502507 0.374853 0.502647 0.376706 0.441037 0.376706 0.443001 0.376234 0.441901 0.374853 0.505047 0.375474 0.507107 0.374853 0.507445 0.376292 0.478507 0.375599 0.501328 0.375599 0.478369 0.375512 0.51705 0.375512 0.518334 0.374853 0.517306 0.376292 0.501466 0.375599 0.501328 0.376292 0.478507 0.376774 0.43457 0.376774 0.43679 0.376234 0.435685 0.37675 0.378742 0.376344 0.379215 0.376344 0.376877 0.376159 0.429761 0.376671 0.403318 0.376671 0.429757 0.376684 0.444875 0.376684 0.446256 0.376234 0.445118 0.376159 0.429761 0.376159 0.403322 0.376671 0.403318 0.376234 0.43457 0.376234 0.432169 0.37676 0.43331 0.37666 0.444875 0.376234 0.443001 0.376746 0.443001 0.375599 0.524379 0.376294 0.501466 0.376294 0.524239 0.376234 0.44749 0.376234 0.446256 0.376732 0.446987 0.375599 0.524379 0.375599 0.501605 0.376294 0.501466 0.376234 0.432169 0.376234 0.429761 0.376674 0.430875 0.375475 0.505047 0.374853 0.502986 0.375475 0.502647 0.375599 0.478234 0.376294 0.455347 0.376294 0.478369 0.374853 0.51705 0.374853 0.515763 0.375512 0.516793 0.375599 0.478234 0.375599 0.455212 0.376294 0.455347 0.375599 0.55371 0.376327 0.551707 0.376473 0.552658 0.375599 0.55371 0.375599 0.551795 0.376327 0.551707 0.812736 0.920589 0.812736 0.893508 0.839647 0.892359 0.03901296 0.922116 0.03901398 0.897737 0.05860698 0.897939 0.839647 0.91944 0.812736 0.920589 0.839647 0.892359 0.05860698 0.922318 0.05860799 0.897939 0.078022 0.897737 0.05860698 0.922318 0.078022 0.897737 0.07802098 0.922116 0.03901296 0.897737 0.03900897 0.922114 0.01968997 0.922399 0.05860596 0.922318 0.03901296 0.922116 0.05860698 0.897939 0.01968997 0.898022 0.01968598 0.922399 0 0.922114 0.01969295 0.898022 0.03901296 0.897737 0.01968997 0.922399 3e-6 0.897737 0.01968997 0.898022 0 0.922114 0.238492 0.921669 0.21842 0.902627 0.238492 0.901506 0.139872 0.789161 0.137452 0.786677 0.139872 0.766721 0.840651 0.151671 0.834245 0.151407 0.829028 0.136521 0.830476 0.133127 0.840651 0.151671 0.829028 0.136521 0.238492 0.921669 0.21842 0.922789 0.21842 0.902627 0.866299 0.892359 0.861821 0.896642 0.84169 0.895518 0.866299 0.919163 0.861821 0.896642 0.866299 0.892359 0.137452 0.803344 0.140723 0.789161 0.140723 0.804499 0.374853 0.559274 0.376637 0.562274 0.374853 0.582298 0.839647 0.892689 0.866299 0.892359 0.84169 0.895518 0.840651 0.151671 0.832133 0.170799 0.834245 0.151407 0.829028 0.1692489 0.834245 0.151407 0.832133 0.170799 0.802976 0.35924 0.799513 0.35924 0.799752 0.339647 0.830476 0.133127 0.833695 0.131823 0.840651 0.151671</float_array>
          <technique_common>
            <accessor source="#F-mesh-map-0-array" count="1626" stride="2">
              <param name="S" type="float"/>
              <param name="T" type="float"/>
            </accessor>
          </technique_common>
        </source>
        <vertices id="F-mesh-vertices">
          <input semantic="POSITION" source="#F-mesh-positions"/>
        </vertices>
        <triangles material="default_001-material" count="542">
          <input semantic="VERTEX" source="#F-mesh-vertices" offset="0"/>
          <input semantic="NORMAL" source="#F-mesh-normals" offset="1"/>
          <input semantic="TEXCOORD" source="#F-mesh-map-0" offset="2" set="0"/>
          <p>5 0 0 3 0 1 0 0 2 21 1 3 2 2 4 4 3 5 8 0 6 5 0 7 0 0 8 18 4 9 9 5 10 1 6 11 20 7 12 18 8 13 1 9 14 28 10 15 4 11 16 7 12 17 23 13 18 21 14 19 4 15 20 25 16 21 23 17 22 4 18 23 28 19 24 25 20 25 4 21 26 10 22 27 6 23 28 9 24 29 28 25 30 7 26 31 11 27 32 13 28 33 10 29 34 9 30 35 15 31 36 13 32 37 9 33 38 18 34 39 15 35 40 9 36 41 35 37 42 12 38 43 14 39 44 33 40 45 29 41 46 12 42 47 35 43 48 33 44 49 12 45 50 35 46 51 14 47 52 16 48 53 38 49 54 17 50 55 19 51 56 37 52 57 35 53 58 16 54 59 40 55 60 19 56 61 22 57 62 40 58 63 38 59 64 19 60 65 42 61 66 22 62 67 24 63 68 42 64 69 40 65 70 22 66 71 42 67 72 24 68 73 27 69 74 30 70 75 26 71 76 29 72 77 42 73 78 27 74 79 31 75 80 33 76 81 30 77 82 29 78 83 52 79 84 32 80 85 34 81 86 50 82 87 43 83 88 32 84 89 52 85 90 50 86 91 32 87 92 67 88 93 34 89 94 36 90 95 54 91 96 52 92 97 34 93 98 67 94 99 54 95 100 34 96 101 67 97 102 36 98 103 39 99 104 69 100 105 39 101 106 41 102 107 69 103 108 67 104 109 39 105 110 71 106 111 41 107 112 43 108 113 71 109 114 69 110 115 41 111 116 71 112 117 43 113 118 50 114 119 75 115 120 48 116 121 44 117 122 80 118 123 45 119 124 49 120 125 77 121 126 75 122 127 44 123 128 141 124 129 78 125 130 47 126 131 128 127 132 46 128 133 82 129 134 140 130 135 46 131 136 128 132 137 75 133 138 50 134 139 48 135 140 85 136 141 49 137 142 51 138 143 83 139 144 80 140 145 49 141 146 85 142 147 83 143 148 49 144 149 87 145 150 51 146 151 53 147 152 73 148 153 71 149 154 50 150 155 75 151 156 73 152 157 50 153 158 87 154 159 85 155 160 51 156 161 89 157 162 53 158 163 55 159 164 89 160 165 87 161 166 53 162 167 67 163 168 56 164 169 54 165 170 95 166 171 55 167 172 57 168 173 91 169 174 89 170 175 55 171 176 93 172 177 91 173 178 55 174 179 95 175 180 93 176 181 55 177 182 62 178 183 58 179 184 56 180 185 95 181 186 57 182 187 59 183 188 65 184 189 62 185 190 56 186 191 67 187 192 65 188 193 56 189 194 160 190 195 61 191 196 63 192 197 97 193 198 95 194 199 59 195 200 148 196 201 99 197 202 60 198 203 160 199 204 149 200 205 61 201 206 166 202 207 64 202 208 66 202 209 164 202 210 161 202 211 64 202 212 166 202 213 164 202 214 64 202 215 171 202 216 66 202 217 68 202 218 169 202 219 166 202 220 66 202 221 171 202 222 169 202 223 66 202 224 175 202 225 68 202 226 70 202 227 173 202 228 171 202 229 68 202 230 175 202 231 173 202 232 68 202 233 175 202 234 70 202 235 72 202 236 177 202 237 72 202 238 74 202 239 177 202 240 175 202 241 72 202 242 179 202 243 74 202 244 76 202 245 179 202 246 177 202 247 74 202 248 181 202 249 76 202 250 79 202 251 181 202 252 179 202 253 76 202 254 150 203 255 78 204 256 141 205 257 183 202 258 79 202 259 151 202 260 183 202 261 181 202 262 79 202 263 131 206 264 81 206 265 84 206 266 129 207 267 127 207 268 81 207 269 131 208 270 129 208 271 81 208 272 134 209 273 84 209 274 86 209 275 134 210 276 131 210 277 84 210 278 138 211 279 86 211 280 88 211 281 136 209 282 134 209 283 86 209 284 138 212 285 136 212 286 86 212 287 92 209 288 88 209 289 90 209 290 138 213 291 88 213 292 92 213 293 100 209 294 92 209 295 94 209 296 138 214 297 92 214 298 100 214 299 100 215 300 94 215 301 96 215 302 102 207 303 96 207 304 98 207 305 102 216 306 100 216 307 96 216 308 104 217 309 102 217 310 98 217 311 115 218 312 104 218 313 98 218 314 148 219 315 116 220 316 99 221 317 269 222 318 101 223 319 103 224 320 267 225 321 139 226 322 101 227 323 269 228 324 267 229 325 101 230 326 269 231 327 103 232 328 105 233 329 115 234 330 107 234 331 104 234 332 274 235 333 106 236 334 108 237 335 271 238 336 269 239 337 105 240 338 113 209 339 109 209 340 107 209 341 366 241 342 108 242 343 110 243 344 115 244 345 113 244 346 107 244 347 366 245 348 274 246 349 108 247 350 113 248 351 111 248 352 109 248 353 119 249 354 109 249 355 111 249 356 364 250 357 110 251 358 120 252 359 366 253 360 110 254 361 364 255 362 146 256 363 112 257 364 114 258 365 125 259 366 111 259 367 117 259 368 144 260 369 118 261 370 112 262 371 125 209 372 119 209 373 111 209 374 146 263 375 144 264 376 112 265 377 148 266 378 114 267 379 116 268 380 148 269 381 146 270 382 114 271 383 142 272 384 126 273 385 118 274 386 144 275 387 142 276 388 118 277 389 123 209 390 121 209 391 119 209 392 364 278 393 120 279 394 122 280 395 125 209 396 123 209 397 119 209 398 127 281 399 121 281 400 123 281 401 129 209 402 121 209 403 127 209 404 362 282 405 122 283 406 130 284 407 364 285 408 122 286 409 362 287 410 142 288 411 124 289 412 126 290 413 140 291 414 128 292 415 124 293 416 142 294 417 140 295 418 124 296 419 362 297 420 130 298 421 133 299 422 261 300 423 132 301 424 135 302 425 362 303 426 133 304 427 264 305 428 265 306 429 135 307 430 137 308 431 265 309 432 261 310 433 135 311 434 267 312 435 137 313 436 139 314 437 267 315 438 265 316 439 137 317 440 152 318 441 141 319 442 143 320 443 152 321 444 150 322 445 141 323 446 154 324 447 143 325 448 145 326 449 154 327 450 152 328 451 143 329 452 156 330 453 145 331 454 147 332 455 156 333 456 154 334 457 145 335 458 158 336 459 147 337 460 149 338 461 158 339 462 156 340 463 147 341 464 160 342 465 158 343 466 149 344 467 188 202 468 151 202 469 153 202 470 186 202 471 183 202 472 151 202 473 188 202 474 186 202 475 151 202 476 190 202 477 153 202 478 155 202 479 190 202 480 188 202 481 153 202 482 192 202 483 155 202 484 157 202 485 192 202 486 190 202 487 155 202 488 192 202 489 157 202 490 159 202 491 162 202 492 159 202 493 161 202 494 194 202 495 159 202 496 162 202 497 194 202 498 192 202 499 159 202 500 164 202 501 162 202 502 161 202 503 212 345 504 163 346 505 165 347 506 210 348 507 195 349 508 163 350 509 212 351 510 210 352 511 163 353 512 212 354 513 165 355 514 167 356 515 199 357 516 168 358 517 170 359 518 212 360 519 167 361 520 196 362 521 260 363 522 170 364 523 172 365 524 260 366 525 199 367 526 170 368 527 258 369 528 172 370 529 174 371 530 260 372 531 172 373 532 258 374 533 258 375 534 174 376 535 176 377 536 256 378 537 176 379 538 178 380 539 258 381 540 176 382 541 256 383 542 254 384 543 178 385 544 180 386 545 256 387 546 178 388 547 254 389 548 252 390 549 180 391 550 182 392 551 254 393 552 180 394 553 252 395 554 252 396 555 182 397 556 185 398 557 200 399 558 184 400 559 187 401 560 252 402 561 185 403 562 203 404 563 206 405 564 187 406 565 189 407 566 204 408 567 200 409 568 187 410 569 206 411 570 204 412 571 187 413 572 206 414 573 189 415 574 191 416 575 206 417 576 191 418 577 193 419 578 208 420 579 193 421 580 195 422 581 208 423 582 206 424 583 193 425 584 210 426 585 208 427 586 195 428 587 229 429 588 213 430 589 197 431 590 231 432 591 229 433 592 197 434 593 259 435 594 233 436 595 198 437 596 214 438 597 201 439 598 205 440 599 250 441 600 202 442 601 216 443 602 251 444 603 202 445 604 250 446 605 219 447 606 205 448 607 207 449 608 217 450 609 214 451 610 205 452 611 219 453 612 217 454 613 205 455 614 221 456 615 207 457 616 209 458 617 221 459 618 219 460 619 207 461 620 223 462 621 209 463 622 211 464 623 223 465 624 221 466 625 209 467 626 227 468 627 211 469 628 213 470 629 225 471 630 223 472 631 211 473 632 227 474 633 225 475 634 211 476 635 229 477 636 227 478 637 213 479 638 241 480 639 215 480 640 218 480 641 242 481 642 215 481 643 241 481 644 249 482 645 215 482 646 242 482 647 241 483 648 218 483 649 220 483 650 241 202 651 220 202 652 222 202 653 226 484 654 222 484 655 224 484 656 228 485 657 222 485 658 226 485 659 241 486 660 222 486 661 228 486 662 232 202 663 228 202 664 230 202 665 234 202 666 228 202 667 232 202 668 241 487 669 228 487 670 234 487 671 237 202 672 234 202 673 232 202 674 259 488 675 238 489 676 233 490 677 237 491 678 235 491 679 234 491 680 242 492 681 234 492 682 235 492 683 242 493 684 241 493 685 234 493 686 259 494 687 236 495 688 238 496 689 242 497 690 235 497 691 239 497 692 257 498 693 240 499 694 236 500 695 259 501 696 257 502 697 236 503 698 243 202 699 242 202 700 239 202 701 245 202 702 243 202 703 239 202 704 255 504 705 246 505 706 240 506 707 257 507 708 255 508 709 240 509 710 249 510 711 242 510 712 243 510 713 253 511 714 244 512 715 246 513 716 249 514 717 243 514 718 247 514 719 253 515 720 248 516 721 244 517 722 255 518 723 253 519 724 246 520 725 253 521 726 250 522 727 248 523 728 253 524 729 251 525 730 250 526 731 275 527 732 262 528 733 266 529 734 310 530 735 263 531 736 277 532 737 361 533 738 263 534 739 310 535 740 278 536 741 266 537 742 268 538 743 278 539 744 275 540 745 266 541 746 280 542 747 268 543 748 270 544 749 280 545 750 278 546 751 268 547 752 282 548 753 270 549 754 272 550 755 282 551 756 280 552 757 270 553 758 284 554 759 282 555 760 272 556 761 365 557 762 286 558 763 273 559 764 313 209 765 276 209 766 279 209 767 336 560 768 309 560 769 276 560 770 313 209 771 311 209 772 276 209 773 339 209 774 276 209 775 311 209 776 339 209 777 336 209 778 276 209 779 319 561 780 279 561 781 281 561 782 296 209 783 279 209 784 294 209 785 316 562 786 294 562 787 279 562 788 329 209 789 279 209 790 296 209 791 326 209 792 313 209 793 279 209 794 319 563 795 316 563 796 279 563 797 329 564 798 326 564 799 279 564 800 287 565 801 281 565 802 283 565 803 319 566 804 281 566 805 287 566 806 341 567 807 283 567 808 285 567 809 289 568 810 287 568 811 283 568 812 292 569 813 289 569 814 283 569 815 294 209 816 292 209 817 283 209 818 349 209 819 294 209 820 283 209 821 349 209 822 283 209 823 341 209 824 300 209 825 298 209 826 285 209 827 344 209 828 285 209 829 298 209 830 307 209 831 300 209 832 285 209 833 365 570 834 308 571 835 286 572 836 344 209 837 341 209 838 285 209 839 388 573 840 288 574 841 291 575 842 370 576 843 320 577 844 288 578 845 388 579 846 370 580 847 288 581 848 371 582 849 290 583 850 293 584 851 388 585 852 291 586 853 374 587 854 371 588 855 293 589 856 295 590 857 349 591 858 296 591 859 294 591 860 375 592 861 295 593 862 317 594 863 375 595 864 371 596 865 295 597 866 344 598 867 298 598 868 296 598 869 414 599 870 297 600 871 299 601 872 321 209 873 296 209 874 313 209 875 392 602 876 315 603 877 297 604 878 329 209 879 296 209 880 321 209 881 346 209 882 344 209 883 296 209 884 349 209 885 346 209 886 296 209 887 414 605 888 392 606 889 297 607 890 414 608 891 299 609 892 302 610 893 356 209 894 303 209 895 300 209 896 393 611 897 301 612 898 304 613 899 351 209 900 300 209 901 307 209 902 359 209 903 300 209 904 351 209 905 359 209 906 356 209 907 300 209 908 414 614 909 302 615 910 396 616 911 307 617 912 305 617 913 303 617 914 334 618 915 303 618 916 305 618 917 354 209 918 307 209 919 303 209 920 339 619 921 311 619 922 303 619 923 397 620 924 304 621 925 312 622 926 334 209 927 331 209 928 303 209 929 339 209 930 303 209 931 331 209 932 356 209 933 354 209 934 303 209 935 397 623 936 393 624 937 304 625 938 363 626 939 306 627 940 308 628 941 334 629 942 305 629 943 309 629 944 361 630 945 310 631 946 306 632 947 363 633 948 361 634 949 306 635 950 354 636 951 351 636 952 307 636 953 365 637 954 363 638 955 308 639 956 336 209 957 334 209 958 309 209 959 397 640 960 312 641 961 314 642 962 324 209 963 321 209 964 313 209 965 326 643 966 324 643 967 313 643 968 397 644 969 314 645 970 389 646 971 370 647 972 318 648 973 320 649 974 375 650 975 317 651 976 367 652 977 421 653 978 323 654 979 325 655 980 418 656 981 330 657 982 322 658 983 420 659 984 418 660 985 322 661 986 423 662 987 325 663 988 328 664 989 423 665 990 421 666 991 325 667 992 415 668 993 327 669 994 330 670 995 423 671 996 328 672 997 416 673 998 418 674 999 415 675 1000 330 676 1001 431 677 1002 333 678 1003 335 679 1004 428 680 1005 340 681 1006 332 682 1007 430 683 1008 428 684 1009 332 685 1010 433 686 1011 335 687 1012 338 688 1013 433 689 1014 431 690 1015 335 691 1016 425 692 1017 337 693 1018 340 694 1019 433 695 1020 338 696 1021 426 697 1022 428 698 1023 425 699 1024 340 700 1025 441 701 1026 343 702 1027 345 703 1028 438 704 1029 350 705 1030 342 706 1031 440 707 1032 438 708 1033 342 709 1034 443 710 1035 345 711 1036 348 712 1037 443 713 1038 441 714 1039 345 715 1040 435 716 1041 347 717 1042 350 718 1043 443 719 1044 348 720 1045 436 721 1046 438 722 1047 435 723 1048 350 724 1049 451 725 1050 353 678 1051 355 726 1052 448 727 1053 360 728 1054 352 729 1055 450 730 1056 448 731 1057 352 732 1058 453 686 1059 355 687 1060 358 688 1061 453 689 1062 451 690 1063 355 691 1064 445 733 1065 357 734 1066 360 735 1067 453 695 1068 358 696 1069 446 697 1070 448 736 1071 445 737 1072 360 738 1073 380 739 1074 376 740 1075 368 741 1076 382 742 1077 380 743 1078 368 744 1079 387 745 1080 384 746 1081 369 747 1082 377 748 1083 372 749 1084 376 750 1085 386 751 1086 373 752 1087 379 753 1088 387 754 1089 373 755 1090 386 756 1091 380 757 1092 377 758 1093 376 759 1094 385 209 1095 378 209 1096 381 209 1097 385 209 1098 381 209 1099 383 209 1100 387 760 1101 386 761 1102 384 762 1103 404 763 1104 398 764 1105 390 765 1106 406 766 1107 404 767 1108 390 768 1109 413 769 1110 408 770 1111 391 771 1112 399 772 1113 394 773 1114 398 774 1115 410 775 1116 395 776 1117 401 777 1118 413 778 1119 395 779 1120 410 780 1121 402 781 1122 399 782 1123 398 783 1124 404 784 1125 402 785 1126 398 786 1127 409 209 1128 400 209 1129 403 209 1130 409 209 1131 403 209 1132 405 209 1133 411 787 1134 405 787 1135 407 787 1136 411 788 1137 409 788 1138 405 788 1139 413 789 1140 412 790 1141 408 791 1142 413 792 1143 410 793 1144 412 794 1145 424 795 1146 417 795 1147 419 795 1148 424 209 1149 419 209 1150 422 209 1151 434 796 1152 427 796 1153 429 796 1154 434 797 1155 429 797 1156 432 797 1157 444 209 1158 437 209 1159 439 209 1160 444 798 1161 439 798 1162 442 798 1163 454 796 1164 447 796 1165 449 796 1166 454 798 1167 449 798 1168 452 798 1169 479 799 1170 458 799 1171 455 799 1172 575 800 1173 456 800 1174 459 800 1175 482 799 1176 479 799 1177 455 799 1178 501 799 1179 482 799 1180 455 799 1181 599 801 1182 502 802 1183 457 803 1184 599 804 1185 457 805 1186 576 806 1187 477 799 1188 461 799 1189 458 799 1190 580 807 1191 460 808 1192 462 809 1193 479 799 1194 477 799 1195 458 799 1196 579 800 1197 575 800 1198 459 800 1199 474 799 1200 463 799 1201 461 799 1202 605 810 1203 462 811 1204 465 812 1205 477 799 1206 474 799 1207 461 799 1208 605 813 1209 580 814 1210 462 815 1211 471 799 1212 466 799 1213 463 799 1214 583 816 1215 464 816 1216 467 816 1217 474 799 1218 471 799 1219 463 799 1220 605 817 1221 465 818 1222 584 819 1223 471 799 1224 469 799 1225 466 799 1226 588 820 1227 468 821 1228 470 822 1229 587 823 1230 583 823 1231 467 823 1232 607 824 1233 470 825 1234 473 826 1235 607 827 1236 588 828 1237 470 829 1238 591 830 1239 472 830 1240 475 830 1241 607 831 1242 473 832 1243 592 833 1244 596 834 1245 476 835 1246 478 836 1247 595 837 1248 591 837 1249 475 837 1250 609 838 1251 478 839 1252 481 840 1253 609 841 1254 596 842 1255 478 843 1256 551 844 1257 480 844 1258 483 844 1259 609 845 1260 481 846 1261 552 847 1262 501 799 1263 485 799 1264 482 799 1265 556 848 1266 484 849 1267 486 850 1268 555 844 1269 551 844 1270 483 844 1271 498 799 1272 487 799 1273 485 799 1274 603 851 1275 486 852 1276 489 853 1277 501 799 1278 498 799 1279 485 799 1280 603 854 1281 556 855 1282 486 856 1283 495 799 1284 490 799 1285 487 799 1286 559 857 1287 488 857 1288 491 857 1289 498 799 1290 495 799 1291 487 799 1292 603 858 1293 489 859 1294 560 860 1295 495 799 1296 493 799 1297 490 799 1298 564 861 1299 492 862 1300 494 863 1301 563 864 1302 559 864 1303 491 864 1304 601 865 1305 494 866 1306 497 867 1307 601 868 1308 564 869 1309 494 870 1310 567 871 1311 496 871 1312 499 871 1313 601 872 1314 497 873 1315 568 874 1316 572 875 1317 500 876 1318 502 877 1319 571 878 1320 567 878 1321 499 878 1322 599 879 1323 572 880 1324 502 881 1325 511 0 1326 506 0 1327 503 0 1328 634 882 1329 505 883 1330 508 884 1331 514 0 1332 511 0 1333 503 0 1334 549 0 1335 514 0 1336 503 0 1337 613 885 1338 550 886 1339 504 887 1340 634 888 1341 614 889 1342 505 890 1343 511 0 1344 509 0 1345 506 0 1346 632 891 1347 507 892 1348 510 893 1349 633 894 1350 507 895 1351 632 896 1352 632 897 1353 510 898 1354 513 899 1355 630 900 1356 512 901 1357 516 902 1358 631 903 1359 512 904 1360 630 905 1361 549 0 1362 517 0 1363 514 0 1364 628 906 1365 515 907 1366 518 908 1367 629 909 1368 515 910 1369 628 911 1370 546 0 1371 519 0 1372 517 0 1373 628 912 1374 518 913 1375 521 914 1376 549 0 1377 546 0 1378 517 0 1379 543 0 1380 522 0 1381 519 0 1382 626 915 1383 520 916 1384 524 917 1385 546 0 1386 543 0 1387 519 0 1388 627 918 1389 520 919 1390 626 920 1391 541 0 1392 525 0 1393 522 0 1394 624 921 1395 523 922 1396 526 923 1397 543 0 1398 541 0 1399 522 0 1400 625 924 1401 523 925 1402 624 926 1403 538 0 1404 527 0 1405 525 0 1406 624 927 1407 526 928 1408 529 929 1409 541 0 1410 538 0 1411 525 0 1412 535 0 1413 530 0 1414 527 0 1415 622 930 1416 528 931 1417 532 932 1418 538 0 1419 535 0 1420 527 0 1421 623 933 1422 528 934 1423 622 935 1424 535 0 1425 533 0 1426 530 0 1427 620 936 1428 531 937 1429 534 938 1430 621 939 1431 531 940 1432 620 941 1433 620 942 1434 534 943 1435 537 944 1436 618 945 1437 536 946 1438 540 947 1439 619 948 1440 536 949 1441 618 950 1442 616 951 1443 539 952 1444 542 953 1445 617 954 1446 539 955 1447 616 956 1448 616 957 1449 542 958 1450 545 959 1451 612 960 1452 544 961 1453 548 962 1454 615 963 1455 544 964 1456 612 965 1457 613 966 1458 547 967 1459 550 968 1460 613 969 1461 611 970 1462 547 971 1463 627 972 1464 554 973 1465 557 974 1466 625 975 1467 610 976 1468 553 977 1469 627 978 1470 626 979 1471 554 980 1472 629 981 1473 558 982 1474 604 983 1475 629 984 1476 628 985 1477 558 986 1478 631 987 1479 562 988 1480 565 989 1481 629 990 1482 604 991 1483 561 992 1484 631 993 1485 630 994 1486 562 995 1487 633 996 1488 566 997 1489 602 998 1490 633 999 1491 632 1000 1492 566 1001 1493 614 1002 1494 570 1003 1495 574 1004 1496 633 1005 1497 602 1006 1498 569 1007 1499 634 1008 1500 570 1009 1501 614 1010 1502 611 1011 1503 573 1012 1504 600 1013 1505 613 1014 1506 573 1015 1507 611 1016 1508 615 1017 1509 578 1018 1510 581 1019 1511 611 1020 1512 600 1021 1513 577 1022 1514 615 1023 1515 612 1024 1516 578 1025 1517 617 1026 1518 582 1027 1519 606 1028 1520 617 1029 1521 616 1030 1522 582 1031 1523 619 1032 1524 586 1033 1525 589 1034 1526 617 1035 1527 606 1036 1528 585 1037 1529 619 1038 1530 618 1039 1531 586 1040 1532 621 1041 1533 590 1042 1534 608 1043 1535 621 1044 1536 620 1045 1537 590 1046 1538 623 1047 1539 594 1048 1540 597 1049 1541 621 1050 1542 608 1051 1543 593 1052 1544 623 1053 1545 622 1054 1546 594 1055 1547 625 1056 1548 598 1057 1549 610 1058 1550 625 1059 1551 624 1060 1552 598 1061 1553 640 799 1554 638 799 1555 635 799 1556 655 1062 1557 636 1063 1558 639 1064 1559 643 799 1560 640 799 1561 635 799 1562 665 1065 1563 644 1066 1564 637 1067 1565 665 1068 1566 637 1069 1567 656 1070 1568 659 1071 1569 639 1072 1570 641 1073 1571 659 1074 1572 655 1075 1573 639 1076 1574 662 1077 1575 642 1078 1576 644 1079 1577 661 1080 1578 659 1081 1579 641 1082 1580 665 1083 1581 662 1084 1582 644 1085 1583 653 1086 1584 648 1086 1585 645 1086 1586 670 1087 1587 647 1088 1588 649 1089 1589 666 1090 1590 654 1091 1591 646 1092 1592 669 1093 1593 666 1094 1594 646 1095 1595 653 1096 1596 650 1096 1597 648 1096 1598 660 1097 1599 649 1098 1600 652 1099 1601 664 1100 1602 649 1101 1603 660 1102 1604 670 1103 1605 649 1104 1606 664 1105 1607 667 1106 1608 651 1107 1609 654 1108 1610 668 1109 1611 660 1110 1612 652 1111 1613 666 1112 1614 657 1113 1615 654 1114 1616 667 1115 1617 654 1116 1618 657 1117 1619 668 1118 1620 658 1119 1621 660 1120 1622 669 1121 1623 663 1122 1624 666 1123 1625</p>
        </triangles>
      </mesh>
    </geometry>
  </library_geometries>
  <library_visual_scenes>
    <visual_scene id="Scene" name="Scene">
      <node id="F" name="F" type="NODE">
        <matrix sid="transform">0.001 0 0 0 0 0.001 0 0 0 0 0.001 0 0 0 0 1</matrix>
        <instance_geometry url="#F-mesh" name="F">
          <bind_material>
            <technique_common>
              <instance_material symbol="default_001-material" target="#default_001-material">
                <bind_vertex_input semantic="UVMap" input_semantic="TEXCOORD" input_set="0"/>
              </instance_material>
            </technique_common>
          </bind_material>
        </instance_geometry>
      </node>
    </visual_scene>
  </library_visual_scenes>
  <scene>
    <instance_visual_scene url="#Scene"/>
  </scene>
</COLLADA>